<?xml version="1.0" encoding="UTF-8" standalone="no"?>
<!DOCTYPE svg PUBLIC "-//W3C//DTD SVG 1.1//EN" "http://www.w3.org/Graphics/SVG/1.1/DTD/svg11.dtd">
<svg width="100%" height="100%" viewBox="0 0 1440 188" version="1.1" xmlns="http://www.w3.org/2000/svg" xml:space="preserve" style="fill-rule:evenodd;clip-rule:evenodd;stroke-linejoin:round;stroke-miterlimit:2;">
    <path d="M1440,50.914l-0,105.388c-0,-0 -1.855,0.367 -3.611,-0.295c-1.08,-0.407 -2.448,-3.291 -2.448,-3.291c-1.594,-0 -3.493,-1.671 -5.225,-0.947c-1.572,0.656 -3.089,-1.263 -4.33,-2.133c-0.835,-0.586 -0.542,-2.752 -1.996,-3.367c-1.791,-0.757 -1.662,-4.67 -3.113,-4.724c-1.587,-0.059 -2.773,-1.675 -4.39,-1.758c-1.557,-0.079 -2.302,-1.317 -3.491,-1.361c-2.101,-0.122 -2.853,0.869 -4.423,1.862c-0.895,0.566 -2.474,0.469 -3.673,1.835c-0.923,1.017 -1.658,1.793 -2.317,2.387c-1.841,1.66 -3.09,1.907 -6.183,2.049c-3.7,0.192 -5.2,-0.29 -7.2,-2.025c-2.3,-2.121 -3.772,2.425 -11.072,2.811c-5.3,0.386 -8.428,-4.547 -11.028,-5.414c-5.6,-1.832 -9.1,-1.639 -12.5,0.675c-2.4,1.831 -3.3,1.928 -6,0.964c-2.8,-0.868 -3.4,-0.772 -5.1,1.157c-1.1,1.157 -2.6,3.471 -3.3,5.206c-1.141,2.42 -1.877,3.222 -5.375,3.977c-1.101,0.238 -2.477,0.47 -4.225,0.748c-1.187,0.183 -2.827,-0.151 -3.887,-0.02c-1.655,0.203 -2.649,0.833 -4.078,0.91c-1.776,0.096 -3.417,-0.723 -5.023,-0.817c-1.508,-0.087 -2.985,0.562 -4.512,0.312c-1.052,-0.181 -2.986,-2.328 -4.521,-1.298c-1.103,0.74 -2.282,-0.22 -3.457,0.157c-2.132,0.685 -4.449,-0.557 -6.522,-0.787c-1.91,-0.224 -5.191,0.588 -6.82,1.133c-2.102,0.703 -2.365,-3.598 -3.768,-2.804c-1.05,0.593 -2.551,-0.79 -4.54,-0.656c-2.239,0.151 -4.642,-2.704 -6.172,-3.844c-1.9,-1.35 -4,-2.507 -4.8,-2.507c-0.8,0 -3.2,-1.542 -5.3,-3.374c-2.5,-2.121 -5,-3.375 -6.8,-3.375c-1.8,0 -4.2,-1.157 -6.5,-3.278c-4.1,-3.471 -5.7,-4.146 -11.7,-4.917c-2.9,-0.289 -4.5,-0 -5.8,1.157c-1.2,1.061 -3.7,1.639 -6.8,1.735c-3.1,0.097 -5.6,0.675 -6.8,1.736c-1,0.868 -2.8,1.639 -4,1.639c-1.2,-0 -2.2,0.386 -2.2,0.964c-0,0.482 -0.6,0.964 -1.3,0.964c-0.6,0 -3.7,1.061 -6.8,2.314c-3.3,1.254 -6.3,1.929 -7.1,1.447c-0.7,-0.386 -3.5,-0.29 -6.1,0.289c-4.1,0.771 -5.2,0.675 -8.3,-1.061c-4.1,-2.314 -7.1,-2.507 -9.8,-0.578c-1.2,0.867 -4.2,1.446 -7.9,1.446c-4.4,-0 -6.5,0.482 -8.4,1.928c-1.5,1.157 -4.1,1.929 -6.3,1.929c-2.9,-0 -4.1,0.578 -5.3,2.314c-1.344,1.91 -3.69,2.855 -10.97,3.449c-1.457,0.119 -3.224,-0.559 -5.108,-0.464c-2.006,0.102 -4.159,0.977 -6.722,1.064c-4.683,0.136 -6.841,2.26 -9.619,2.204c-2.072,-0.042 -5.133,-2.308 -6.377,-2.078c-1.826,0.339 -2.811,1.727 -3.504,2.284c-1.6,1.254 -14.2,0.965 -16.9,-0.385c-1.1,-0.579 -3.6,-1.35 -5.5,-1.736c-1.9,-0.385 -5.3,-1.253 -7.5,-1.832c-4.6,-1.349 -14.1,-1.253 -20.5,0.097c-7.3,1.542 -11.5,0.385 -14.7,-4.146c-2.7,-3.76 -3.8,-4.724 -7.3,-5.978c-0.8,-0.386 -3.1,-1.543 -5,-2.603c-2.9,-1.736 -5.2,-2.121 -13.8,-2.218c-9.7,-0.096 -10.5,-0.289 -12.3,-2.41c-1.2,-1.446 -1.6,-2.603 -1,-2.989c0.6,-0.289 -0.6,-0.578 -2.7,-0.578c-6.2,-0.097 -13.4,-1.157 -14.6,-2.314c-1.5,-1.447 -2.6,-1.157 -2.6,0.771c-0,0.964 -0.6,2.507 -1.3,3.471c-2.2,2.892 -15.2,2.41 -24,-0.771c-5,-1.832 -7.3,-2.314 -8.7,-1.543c-1.3,0.675 -3,0.482 -5.8,-0.386c-2.9,-0.964 -4.2,-1.06 -4.4,-0.385c-0.2,0.578 -1.8,1.06 -3.6,1.06c-1.8,0 -3.2,0.386 -3.2,0.868c-0,0.482 -0.5,0.578 -1,0.289c-0.6,-0.289 -1.3,0.097 -1.6,0.868c-0.3,0.868 -1.1,1.543 -1.7,1.543c-0.5,-0 -2.5,1.06 -4.4,2.506c-5.6,4.146 -9.5,5.207 -17.2,4.821c-4.1,-0.289 -7.3,0 -7.7,0.579c-0.3,0.482 -1.7,0.675 -3.1,0.289c-1.3,-0.289 -6,-0.771 -10.3,-0.964c-4.4,-0.29 -8.9,-0.964 -10,-1.639c-1.6,-0.965 -2.4,-0.965 -4,-0c-1.7,0.964 -2.5,0.867 -4.7,-0.482c-1.5,-0.965 -3.6,-2.507 -4.6,-3.471c-1.6,-1.543 -2,-1.543 -4.8,-0.193c-2.5,1.35 -3.3,1.35 -4.6,0.289c-2.1,-1.639 -9.1,-1.639 -9.8,-0c-0.4,0.964 -2.1,1.157 -6.5,0.771c-3.4,-0.289 -6.4,-0.771 -6.9,-0.964c-0.4,-0.289 -2,0.193 -3.5,0.964c-3.6,1.736 -5,1.736 -6.6,-0.096c-1,-1.157 -1.9,-0.771 -6.2,2.41c-2.7,2.121 -5.3,3.857 -5.6,3.953c-7.7,0.965 -12.2,0.675 -15.7,-1.06c-2.2,-1.061 -4.5,-1.929 -5.3,-1.929c-0.7,0 -2.9,-1.157 -4.7,-2.506c-3.9,-2.796 -11.9,-4.435 -11,-2.218c0.3,0.868 -1.1,2.121 -4.1,3.471c-4.1,2.025 -4.9,2.025 -7.3,0.868c-8.1,-4.146 -11.3,-5.207 -13.9,-4.435c-1.5,0.482 -3.9,1.06 -5.5,1.349c-1.5,0.386 -2.7,1.254 -2.7,2.025c-0,0.772 -0.9,1.446 -2,1.446c-1.1,0 -2.3,0.675 -2.6,1.447c-0.4,0.771 -1.2,1.446 -2,1.446c-0.8,-0 -1.4,0.675 -1.4,1.446c-0,0.868 -0.9,1.446 -2.4,1.446c-1.4,0 -2.8,0.483 -3.1,0.965c-0.8,1.349 -5.1,1.253 -7.8,-0.193c-1.2,-0.579 -4.4,-0.964 -7,-0.868c-2.7,0.096 -5.4,-0.193 -6,-0.675c-1.6,-1.35 -7.6,-1.735 -11.4,-0.868c-2.2,0.579 -4.1,0.386 -6,-0.675c-1.8,-0.867 -5.7,-1.349 -10.3,-1.349c-12.3,-0.097 -24.012,-5.885 -25.412,-7.235c-1.5,-1.543 -2.6,-0.771 -1.8,1.253c0.5,1.254 0.1,1.447 -2.1,0.868c-2.7,-0.675 -2.7,-0.578 -1.2,1.446c1.3,1.832 1.3,2.507 0.2,4.628c-3.4,6.267 -6.1,6.846 -15.6,3.471c-4.4,-1.542 -16.5,-7.203 -20.6,-7.492c-1.1,-0.096 -2.8,-0.771 -3.7,-1.446c-2.3,-1.928 -10.2,-3.953 -12.6,-3.375c-1.1,0.29 -3.7,-0.096 -5.8,-0.771c-2.1,-0.675 -5.5,-1.061 -7.5,-0.964c-2,0.096 -3.9,-0.289 -4.3,-0.771c-0.6,-1.061 -4.488,4.245 -6.388,6.077c-0.7,0.579 -1.8,0.964 -2.5,0.771c-0.7,-0.192 -3.5,-0.578 -6.3,-0.867c-4.6,-0.579 -5.6,-0.29 -8.2,1.832c-1.6,1.349 -3.7,5.274 -4.7,5.274c-0.9,0 -3.1,1.35 -4.8,2.893c-7.6,7.038 -11.8,9.641 -15.7,9.641c-2.2,0 -4.2,-0.482 -4.6,-1.06c-0.4,-0.675 -2.1,-0.868 -4.5,-0.482c-4.6,0.675 -8.6,-0.868 -13.9,-5.592c-2.1,-1.832 -5.5,-3.568 -8.5,-4.339c-2.8,-0.579 -6.8,-1.928 -9,-2.893c-11.1,-4.917 -15.6,-5.688 -18.8,-3.085c-0.9,0.579 -3.7,1.35 -6.2,1.639c-2.6,0.193 -9.3,1.061 -14.8,1.832c-16.3,2.314 -25.6,1.543 -28.8,-2.507c-1.3,-1.639 -2.2,-1.928 -4.4,-1.446c-1.5,0.386 -4.2,0.193 -5.9,-0.386c-2.5,-0.771 -4.1,-0.675 -6.9,0.482c-3.4,1.35 -4.1,1.35 -9.2,-0.385c-3,-1.061 -6.8,-2.796 -8.5,-3.953c-2.3,-1.543 -3.8,-1.929 -5.8,-1.447c-3.9,0.965 -12.2,0.675 -15.5,-0.674c-2.3,-0.868 -3.1,-0.772 -3.7,0.096c-0.5,0.771 -1.6,1.061 -3,0.578c-1.7,-0.482 -2,-0.385 -1.5,0.483c0.4,0.674 0.4,1.06 -0.1,0.771c-8.1,-3.76 -14.1,-5.592 -13,-3.857c0.7,1.157 -1.9,4.05 -3.8,4.05c-2.1,-0 -8,-2.121 -9.6,-3.375c-3.4,-2.796 -6.2,-2.7 -8.4,0c-2.2,2.7 -2.3,2.7 -6.7,1.254c-3.1,-0.965 -5.3,-2.604 -7.4,-5.4c-1.7,-2.217 -3.9,-3.953 -5,-3.953c-1.1,-0.096 -3.3,-1.157 -5,-2.41c-2.9,-2.218 -3,-2.218 -4.6,-0.386c-2.9,3.182 -7.4,3.76 -16.3,2.025c-9.2,-1.736 -15,-4.242 -16.6,-7.039c-0.6,-1.06 -1.9,-1.928 -2.9,-1.928c-1.9,0 -3.5,-2.41 -2.6,-3.856c0.3,-0.483 -0.8,-0.29 -2.4,0.289c-2.6,0.868 -3.4,0.675 -7.1,-1.736c-2.3,-1.542 -4.4,-3.374 -4.7,-4.049c-0.3,-0.675 -1,-1.254 -1.6,-1.254c-0.6,0 -2.8,-1.832 -4.8,-4.049c-3.1,-3.567 -3.9,-3.953 -5.2,-2.893c-1,0.868 -1.8,3.761 -2.3,8.003c-0.4,3.857 -1.1,6.653 -1.8,6.653c-0.6,-0 -2.9,1.735 -5.1,3.856c-2.2,2.025 -4.6,3.761 -5.3,3.857c-1.2,-0 -6.8,3.278 -8.2,4.821c-1,0.964 -6.6,4.049 -12.1,6.46c-3.4,1.542 -6.5,3.76 -7.9,5.785c-1.6,2.314 -3,3.181 -5,3.181c-1.5,0 -3.5,0.868 -4.5,1.929c-2.2,2.314 -7.7,2.603 -9.5,0.482c-0.7,-0.772 -1.8,-1.447 -2.4,-1.447c-0.7,0 -1.7,-0.578 -2.4,-1.253c-0.7,-0.578 -4.4,-2.218 -8.4,-3.567c-4.3,-1.447 -7.6,-3.182 -8.2,-4.339c-0.6,-1.061 -1.2,-2.121 -1.3,-2.314c-0.1,-0.193 -2.1,0.578 -4.3,1.735c-3.8,1.832 -4.3,1.929 -7,0.579c-3.8,-1.928 -14.4,-1.928 -16.3,-0c-0.8,0.771 -4.4,2.989 -7.9,5.014c-4.5,2.506 -7.4,3.567 -10,3.471c-3.3,-0.193 -4.2,0.385 -7.5,4.145c-3.5,3.857 -4.3,4.243 -8.5,4.436c-3.7,0.192 -5.2,-0.29 -7.2,-2.025c-2.3,-2.121 -3.1,-2.218 -10.4,-1.832c-5.3,0.386 -9.1,0.096 -11.7,-0.771c-5.6,-1.832 -9.1,-1.639 -12.5,0.675c-2.4,1.831 -3.3,1.928 -6,0.964c-2.8,-0.868 -3.4,-0.772 -5.1,1.157c-1.1,1.157 -2.6,3.471 -3.3,5.206c-0.8,1.639 -2.2,3.182 -3.3,3.471c-2.9,0.868 -10.5,1.928 -13.8,2.025l-3.5,0.873l-0,-105.388l1440,-0Zm-1259.4,14.848c-0.8,-0.289 -1,0.771 -0.8,3.278c0.3,2.507 -0.1,4.05 -1.2,4.917c-3,2.411 -1.4,7.81 2.3,7.81c0.8,0 2.7,1.157 4.3,2.603c2.1,1.929 4.1,2.604 8,2.989l5.3,0.386l1,-4.146c0.9,-3.664 0.4,-13.788 -0.7,-14.848c-0.2,-0.193 -1.9,-0.675 -3.7,-0.964c-1.9,-0.29 -3.9,-0.868 -4.4,-1.157c-1.9,-1.157 -7.2,-1.929 -8.1,-1.157c-0.5,0.385 -1.4,0.482 -2,0.289Z" style="fill:#fff;fill-opacity:0.7;fill-rule:nonzero;"/>
    <path d="M-0,50.914l-0,105.388l7.315,-0c3.4,1.458 2.261,-2.35 8.744,-2.615c6.008,-0.246 5.824,0.52 10.11,-0.515c1.6,0.729 6.125,-0.646 6.871,1.891c0.3,1.021 1.06,0.977 4.76,3.455c6.6,4.593 6.8,4.666 12.3,4.666c4.7,0 5.9,-0.292 8,-1.895c1.3,-1.021 3.2,-2.115 4.3,-2.406c4,-1.094 13.6,4.447 13.6,7.873c0,0.948 1.1,1.896 3,2.625c1.8,0.656 3,1.677 3,2.624c0,1.896 6.5,9.332 8.8,9.915c0.9,0.219 3.1,1.531 4.9,2.843c3.2,2.479 3.3,2.479 12.4,2.479c6.9,-0 9.7,-0.292 10.9,-1.094c1.5,-1.02 2.2,-0.947 6.4,0.365c5.8,1.75 9.7,1.822 15.3,0.291c2.9,-0.874 4.5,-1.749 4.9,-2.916c0.7,-1.895 14.4,-10.498 16.8,-10.498c0.9,0 1.6,-0.51 1.6,-1.093c-0,-1.239 3.5,-4.01 5,-4.01c0.6,0 1.6,0.802 2.2,1.823c0.7,1.093 2.8,2.26 5.6,3.062c4.1,1.093 4.5,1.093 5.4,-0c0.5,-0.656 1.7,-1.24 2.6,-1.24c0.9,0 3.1,-0.656 4.7,-1.458c1.7,-0.802 3.7,-1.458 4.6,-1.458c2,0 6.6,-3.572 7.1,-5.467c0.2,-0.875 1.3,-1.531 2.8,-1.677c3.6,-0.365 5.9,-2.187 6.6,-5.176c0.4,-1.458 1,-3.135 1.5,-3.791c1,-1.385 8.2,-4.302 10.5,-4.302c1.1,0 1.5,-0.437 1.1,-1.458c-0.3,-0.947 -0,-1.458 0.8,-1.458c0.8,0 1.8,-0.583 2.3,-1.239c0.9,-1.093 2,-0.875 10.3,2.187c5.2,1.896 10.3,3.427 11.3,3.427c1.1,-0 3.7,-1.386 6,-3.062c3.3,-2.625 4.7,-3.135 8.1,-3.281c8.8,-0.219 18.1,-1.021 20.6,-1.75c2.8,-0.802 7.1,-4.447 7.9,-6.852c0.6,-1.386 1.5,-1.459 13.5,-1.459c7.2,-0.072 13.5,-0.291 14.2,-0.583c0.6,-0.291 1.5,-0.146 1.8,0.292c0.7,0.802 4.8,0.51 11,-0.802c1.7,-0.365 5.4,-1.021 8.3,-1.458c4.8,-0.802 5.5,-0.729 7.4,0.437c3.3,2.26 5.1,5.541 4.9,9.113c-0.2,2.989 0.1,3.499 3.7,5.541c4.2,2.478 12.5,4.082 20,3.864c2.4,-0 5,0.291 5.7,0.729c1.6,0.947 6,1.166 9.1,0.437c2.6,-0.583 8.8,1.823 12.1,4.593c1.9,1.677 2.9,1.895 9.5,2.041c9.8,0.146 27,-2.187 30.2,-4.082c0.8,-0.511 2.4,-0.511 4.7,-0.073c4.9,1.02 6.7,0.875 8.6,-0.729c1,-0.802 2.6,-1.458 3.6,-1.458c1.7,-0 6.9,-2.625 12.4,-6.197c1.2,-0.802 3,-3.062 4,-5.03c2.4,-4.666 4.4,-5.687 7.5,-3.573c3.4,2.333 19.8,3.791 23.3,2.115c3.3,-1.604 7.4,-1.459 10,0.291c2.1,1.458 2.4,1.458 6.6,0.438c2.4,-0.657 5.8,-1.167 7.4,-1.167c1.7,0 4.1,-0.51 5.5,-1.093c5.6,-2.333 10.5,-0.802 9.8,2.989c-0.3,1.822 0.4,2.332 6.2,4.811c3.6,1.531 7,2.77 7.5,2.77c0.6,0 1.9,1.24 3,2.771c1.3,1.822 2.8,2.77 4.5,2.916c1.4,0.146 3,0.583 3.5,0.948c0.908,0.472 5.998,0.954 9.39,-0.698c2.408,-1.173 6.497,1.242 10.61,1.062c2.472,-0.115 4.68,-1.117 6.547,-1.24c2.142,-0.142 5.481,2.41 8.247,2.669c2.853,0.267 5.139,-1.753 7.706,-1.575c10.4,0.656 17.1,-2.114 15.6,-6.488c-0.5,-1.385 -0,-2.552 1.9,-4.301c1.4,-1.313 2.5,-2.771 2.5,-3.281c-0,-0.51 1.3,-1.239 3,-1.604c1.6,-0.437 3,-1.093 3,-1.458c-0,-1.02 7.7,-4.301 10.2,-4.301c3.9,-0 8.8,-2.625 8.8,-4.739c-0,-2.041 2.5,-3.28 6.7,-3.28c2.4,-0 3.4,-0.656 6,-3.864c1.7,-2.041 3.3,-4.447 3.6,-5.249c0.2,-0.802 0.5,-0.073 0.6,1.604c0.1,2.478 0.6,3.353 2.6,4.301c2.1,1.021 2.5,1.75 2.5,5.03c-0,2.26 0.5,4.156 1.3,4.593c0.7,0.437 5.1,1.312 9.8,1.896c7.3,0.947 9.1,1.458 12.3,3.645c4.2,2.77 7.1,3.353 18.6,3.499c4.1,0.073 8,0.365 8.6,0.729c1.9,1.021 9.8,2.989 12.9,3.135c1.7,0.146 7.7,0.437 13.5,0.729c6.1,0.291 11.1,0.948 12,1.458c0.8,0.583 2.9,1.093 4.5,1.239c2.2,0.146 3.1,0.656 3.3,1.823c0.5,2.333 4.9,2.843 8.3,1.02c4.1,-2.26 5.7,-1.895 8,1.677c1.9,3.062 2.3,3.281 7,3.718c4.3,0.438 5.4,0.292 7.3,-1.02c1.6,-1.094 2.5,-1.313 3.3,-0.729c1.7,1.239 9.6,1.02 12.6,-0.365c1.7,-0.875 3.6,-1.166 5.4,-0.875c6.1,0.948 12.5,-3.645 10.7,-7.8c-0.4,-1.021 0.4,-1.604 3.5,-2.552c2.5,-0.802 4.2,-1.822 4.6,-2.916c0.3,-0.875 1,-1.604 1.5,-1.604c0.6,0 1,-0.437 1,-0.948c-0,-0.583 0.7,-2.041 1.6,-3.28c1.2,-1.823 1.9,-2.187 3.2,-1.677c0.9,0.365 4.9,0.802 8.9,1.094c8.1,0.583 14.1,-0.729 15,-3.208c0.3,-0.802 0.9,-1.24 1.4,-1.021c0.5,0.219 4.4,0.438 8.6,0.438c5.4,0.073 8.7,0.51 10.8,1.385c1.7,0.656 5.9,1.822 9.5,2.551c3.6,0.729 9.2,2.042 12.4,2.989c3.3,0.948 7,1.677 8.3,1.677c1.3,0 2.9,0.802 3.9,1.896c1.3,1.385 2.3,1.749 3.8,1.385c2.2,-0.438 8.7,-1.021 14.7,-1.313c3.8,-0.218 7.3,-1.676 6.4,-2.77c-0.3,-0.291 0.4,-0.948 1.5,-1.385c1.4,-0.51 2,-1.385 1.8,-2.479c-0.1,-0.874 0.7,-2.551 2,-3.645c1.2,-1.166 2.2,-2.697 2.2,-3.353c0,-0.729 0.7,-1.677 1.6,-2.26c0.8,-0.511 1.3,-1.531 1.1,-2.26c-0.8,-2.114 0.6,-2.114 8.8,-0.146c5.6,1.458 8.3,1.75 9.8,1.239c2.7,-0.802 12.2,-0.656 15.1,0.365c1.1,0.364 3.8,1.239 5.9,1.895c2.8,0.875 3.7,1.531 3.3,2.406c-0.4,0.583 -0.1,1.604 0.6,2.26c0.7,0.583 1.1,1.166 0.9,1.166c-0.2,0.073 0.1,1.313 0.8,2.844c1,2.187 2.3,3.134 6.2,4.52c2.6,1.02 5.8,1.822 6.9,1.822c2.5,0 9,-2.989 9,-4.082c0,-0.438 0.7,-1.24 1.5,-1.75c1.3,-0.729 1.9,-0.729 3.3,0.146c2.5,1.604 5.3,1.895 11.3,1.239c5.5,-0.656 7.9,0 7.9,2.041c0,0.584 1.5,2.844 3.2,5.031c2.7,3.28 3.7,3.936 6.1,3.936c4.2,0 6.7,1.24 6.7,3.281c0,2.114 4.9,4.739 8.8,4.739c2.5,-0 10.2,3.28 10.2,4.301c0,0.365 1.3,1.021 3,1.458c1.6,0.365 3,1.094 3,1.604c0,0.51 1.1,1.968 2.5,3.281c1.9,1.749 2.4,2.916 1.9,4.301c-1.5,4.374 5.2,7.144 15.6,6.488c6.3,-0.437 10,-0.437 22.5,0.146c11.7,0.51 18.6,0.364 20,-0.365c0.5,-0.364 2.1,-0.802 3.5,-0.947c1.7,-0.146 3.2,-1.094 4.5,-2.916c1.1,-1.531 2.5,-2.771 3,-2.771c0.6,0 3.9,-1.239 7.5,-2.77c5.8,-2.479 6.5,-2.989 6.2,-4.812c-0.7,-3.791 4.2,-5.322 9.8,-2.989c1.4,0.584 3.9,1.094 5.5,1.094c1.7,-0 5,0.51 7.4,1.166c4.2,1.021 4.5,1.021 6.6,-0.437c2.6,-1.75 6.7,-1.896 10,-0.292c3.5,1.677 19.9,0.219 23.3,-2.114c3.1,-2.114 5.1,-1.093 7.5,3.572c1,1.969 2.8,4.229 4,5.031c5.5,3.572 10.7,6.196 12.4,6.196c1,0 2.6,0.657 3.6,1.458c1.9,1.604 3.7,1.75 8.6,0.729c2.3,-0.437 3.9,-0.437 4.7,0.073c3.2,1.896 20.4,4.229 30.2,4.083c6.6,-0.146 7.6,-0.365 9.5,-2.041c3.3,-2.771 9.5,-5.176 12.1,-4.593c3.1,0.729 7.5,0.51 9.1,-0.438c0.7,-0.437 3.3,-0.729 5.7,-0.729c7.5,0.219 15.8,-1.385 20,-3.863c3.6,-2.042 3.9,-2.552 3.7,-5.541c-0.2,-3.572 1.6,-6.853 4.9,-9.113c1.9,-1.166 2.6,-1.239 7.4,-0.437c2.9,0.437 6.7,1.093 8.3,1.458c5.7,1.239 10.3,1.604 10.9,0.875c0.3,-0.365 2.7,-0.438 5.8,-0.073c2.9,0.291 7.8,0.51 10.8,0.364c3,-0.146 4.762,0.772 6.062,0.7l3.938,-0l0,-105.388l-1440,-0Z" style="fill:#fff;fill-opacity:0.7;fill-rule:nonzero;"/>
    <path d="M-0,0l-0,88.032c-0,-0 5.635,1.561 6.45,3.433c1.538,3.532 12.248,3.398 14.348,2.953c3.4,-0.635 4.2,-0.572 6,0.508c3.4,1.97 12.119,0.733 11.919,3.846c-0.2,2.604 0.1,3.049 3.7,4.828c4.2,2.16 0.095,8.504 7.595,8.314c2.4,-0 5.836,9.408 6.536,9.789c1.6,0.826 6,1.016 9.1,0.381c2.6,-0.508 8.8,1.588 12.1,4.002c1.9,1.462 2.9,1.652 9.5,1.779c4.573,0.059 3.218,7.417 9.401,7.594c8.152,0.232 12.044,3.765 13.751,2.884c0.8,-0.444 2.4,-0.444 4.7,-0.063c4.9,0.889 6.7,0.762 8.6,-0.636c1,-0.698 2.6,-1.27 3.6,-1.27c1.7,-0 6.9,-2.287 12.4,-5.4c1.2,-0.699 3,-2.668 4,-4.383c2.4,-4.066 4.4,-4.955 7.5,-3.113c3.4,2.033 19.8,3.303 23.3,1.842c3.3,-1.397 7.4,-1.27 10,0.254c2.1,1.271 2.4,1.271 6.6,0.381c2.4,-0.571 5.8,-1.016 7.4,-1.016c1.7,-0 4.1,-0.445 5.5,-0.953c5.6,-2.033 10.5,-0.699 9.8,2.605c-0.3,1.588 0.4,2.033 6.2,4.192c3.6,1.335 7,2.415 7.5,2.415c0.6,-0 1.9,1.08 3,2.414c1.3,1.588 2.8,2.414 4.5,2.541c1.4,0.127 3,0.508 3.5,0.826c0.466,0.211 1.57,-0.27 3.229,-0.173c0.91,0.053 1.969,0.724 3.228,0.741c1.524,0.021 3.3,-0.639 5.32,-0.672c1.163,-0.019 2.573,0.975 3.896,1.097c1.409,0.129 2.74,-0.616 4.327,-0.676c1.494,-0.061 2.544,1.378 3.967,1.13c1.314,-0.229 2.182,1.022 3.412,0.999c2.134,-0.039 3.605,2.01 5.062,1.991c0.698,-0.009 1.847,-0.075 2.42,-0.37c0.772,-0.397 0.96,-1.072 1.941,-1.298c0.986,-0.227 1.953,-0.704 2.958,-1.01c1.492,-0.454 1.582,-1.639 2.74,-1.569c1.587,0.087 3.397,-0.958 4.518,-0.304c1.708,0.997 3.347,-0.462 4.691,-0.096c1.661,0.451 2.794,-0.898 4.589,-1.038c1.86,-0.145 2.337,-2.856 1.802,-4.216c-0.5,-1.207 -0,-2.223 1.9,-3.748c1.4,-1.143 2.5,-2.414 2.5,-2.859c-0,-0.444 1.3,-1.08 3,-1.397c1.6,-0.381 3,-0.953 3,-1.271c-0,-0.889 7.7,-3.748 10.2,-3.748c3.9,0 8.8,-2.287 8.8,-4.129c-0,-1.779 2.5,-2.859 6.7,-2.859c2.4,-0 3.4,-0.572 6.1,-3.431c1.7,-1.905 3.2,-3.875 3.2,-4.383c-0,-1.269 1.222,-1.924 3.921,-1.987c1.083,-0.025 2.404,0.045 3.979,0.208c0.953,0.091 1.825,0.536 2.628,0.598c1.084,0.082 2.041,-0.235 2.901,-0.254c1.299,-0.029 2.542,0.359 3.496,0.105c0.895,-0.238 1.516,-1.104 2.275,-1.529c1.4,-0.762 2,-0.762 3.3,-0.127c0.8,0.445 1.5,1.144 1.5,1.525c-0,0.484 1.408,2.119 3.654,2.172c1.916,0.046 4.116,1.386 5.346,1.386c0.739,-0 2.368,0.245 4.184,-0.231c0.887,-0.233 1.863,-1.066 2.716,-1.358c2.363,-0.75 3.971,-1.512 5.625,-2.169c1.924,-0.764 1.38,-2.731 1.575,-4.183c-0,-0.382 0.5,-0.953 1,-1.335c0.5,-0.381 0.7,-1.207 0.3,-1.715c-0.4,-0.762 0.5,-1.334 3.3,-2.096c2.1,-0.572 4.8,-1.334 5.9,-1.652c1.6,-0.491 5.088,-1.8 8.456,-1.816c2.736,-0.013 5.434,1.185 6.644,1.498c1.5,0.445 4.2,0.191 9.8,-1.079c8.2,-1.716 9.6,-1.716 8.8,0.127c-0.2,0.635 0.3,1.524 1.1,1.969c0.9,0.508 1.6,1.334 1.6,1.969c-0,0.572 1,1.906 2.2,2.923c1.3,0.952 2.1,2.414 2,3.176c-0.2,0.953 0.4,1.715 1.8,2.16c1.1,0.381 1.8,0.953 1.5,1.207c-0.9,0.953 2.6,2.223 6.4,2.414c2.484,0.105 5.054,2.058 7.37,2.223c3.276,0.234 6.041,-1.303 7.33,-1.08c1.5,0.318 2.5,0 3.8,-1.207c1,-0.953 2.6,-1.651 3.9,-1.651c1.3,-0 5.101,0.914 8.401,0.088c1.875,-0.484 4.765,-4.192 7.111,-3.162c2.166,0.951 3.697,-0.729 5.188,-0.992c3.6,-0.635 7.9,-1.652 9.5,-2.224c1.23,-0.446 3.652,1.657 6.397,1.182c2.617,-0.454 3.489,1.433 4.584,2.006c1.78,0.931 3.111,-1.079 5.508,-1.828c2.205,-0.689 2.672,-2.857 2.911,-2.948c0.5,-0.19 4.741,0.78 5.041,1.479c0.9,2.16 3.259,2.714 11.359,2.206c4,-0.254 8,-0.635 8.9,-0.953c1.3,-0.445 2,-0.127 3.2,1.461c0.9,1.08 1.6,2.351 1.6,2.859c-0,0.445 0.4,0.826 1,0.826c0.5,-0 1.2,0.635 1.5,1.397c0.4,0.953 2.1,1.843 4.6,2.541c3.1,0.826 3.9,1.334 3.5,2.224c-1.8,3.621 4.6,7.623 10.7,6.797c1.8,-0.254 3.7,0 5.4,0.763c3,1.207 10.9,1.397 12.6,0.317c0.8,-0.508 1.7,-0.317 3.3,0.636c1.9,1.143 3,1.27 7.3,0.889c4.7,-0.381 5.1,-0.572 7,-3.24c2.3,-3.113 3.9,-3.43 8,-1.461c3.4,1.588 7.8,1.143 8.3,-0.889c0.2,-1.017 1.1,-1.462 3.3,-1.589c1.7,-0.127 3.7,-0.571 4.5,-1.08c0.9,-0.444 5.9,-1.016 12,-1.27c1.937,-0.085 5.277,1.71 7.103,1.629c3.639,-0.159 5.331,-2.18 6.397,-2.264c1.574,-0.065 4.076,-1.689 6.712,-2.256c2.554,-0.55 5.253,-0.038 6.188,-0.476c0.366,-0.194 1.072,3.561 4.271,3.335c1.957,-0.138 3.029,1.824 4.63,1.799c2.112,-0.023 3.567,-1.901 5.854,-2.198c2.54,-0.331 3.388,-2.325 4.612,-2.443c4.051,-0.391 5.2,-2.664 7.833,-4.178c3.2,-1.906 5,-2.35 12.3,-3.176c4.7,-0.508 9.1,-1.271 9.8,-1.652c0.8,-0.381 1.3,-2.033 1.3,-4.002c-0,-2.859 0.4,-3.494 2.5,-4.383c2,-0.826 2.5,-1.589 2.6,-3.749c0.1,-1.461 0.4,-2.096 0.6,-1.397c0.3,0.699 1.9,2.795 3.6,4.574c2.6,2.795 3.6,3.367 6,3.367c4.2,-0 6.7,1.08 6.7,2.858c-0,1.843 4.9,4.13 8.8,4.13c2.5,-0 10.2,2.858 10.2,3.748c-0,0.318 1.4,0.889 3,1.27c1.7,0.318 3,0.953 3,1.398c-0,0.445 1.1,1.715 2.5,2.859c1.9,1.524 2.4,2.541 1.9,3.748c-1.5,3.812 5.2,6.226 15.6,5.654c3.936,-0.238 7.146,2.068 11.832,2.158c2.815,0.054 5.977,-2.222 10.668,-2.031c4.57,0.174 8.083,-2.242 11.146,-2.239c4.78,0.005 8.001,2.308 8.854,1.921c0.5,-0.317 2.1,-0.699 3.5,-0.826c1.7,-0.127 3.2,-0.952 4.5,-2.541c1.1,-1.334 2.5,-2.414 3,-2.414c0.6,0 3.9,-1.08 7.5,-2.414c5.8,-2.16 6.5,-2.604 6.2,-4.193c-0.7,-3.303 4.2,-4.637 9.8,-2.604c1.4,0.508 3.9,0.953 5.5,0.953c1.7,-0 5,0.444 7.4,1.016c4.2,0.89 4.5,0.89 6.6,-0.381c2.6,-1.525 6.7,-1.652 10,-0.254c3.5,1.461 19.9,0.19 23.3,-1.842c3.1,-1.843 5.1,-0.953 7.5,3.112c1,1.716 2.8,3.685 4,4.384c5.5,3.113 10.7,5.4 12.4,5.4c1,-0 2.6,0.571 3.6,1.27c1.9,1.398 3.7,1.525 8.6,0.635c2.3,-0.381 3.9,-0.381 4.7,0.064c3.2,1.652 20.4,3.685 30.2,3.558c6.6,-0.128 7.6,-0.318 9.5,-1.779c3.3,-2.414 9.5,-4.511 12.1,-4.002c3.1,0.635 7.5,0.444 9.1,-0.382c0.7,-0.381 3.3,-0.635 5.7,-0.635c7.5,0.191 15.8,-1.207 20,-3.367c3.6,-1.779 3.9,-2.223 3.7,-4.828c-0.2,-3.113 1.6,-5.972 4.9,-7.941c1.9,-1.016 2.6,-1.08 7.4,-0.381c2.9,0.381 6.7,0.953 8.3,1.27c6.2,1.144 10.3,1.398 11,0.699c0.3,-0.381 1.2,-0.508 1.8,-0.254c0.7,0.254 7,0.445 14.2,0.508c12,0 12.9,0.064 13.5,1.271c0.8,2.096 5.1,5.273 7.9,5.972c2.5,0.635 11.8,1.334 20.6,1.524c3.4,0.127 4.8,0.572 8.1,2.859c2.3,1.461 4.9,2.668 6,2.668c1,0 6.1,-1.334 11.3,-2.986c8.3,-2.668 9.4,-2.858 10.3,-1.906c0.5,0.572 1.5,1.08 2.3,1.08c0.8,0 1.1,0.445 0.8,1.271c-0.4,0.889 -0,1.271 1.1,1.271c2.3,-0 9.5,2.541 10.5,3.748c0.5,0.571 1.1,2.033 1.5,3.303c0.7,2.605 3,4.193 6.6,4.511c1.5,0.127 2.6,0.698 2.8,1.461c0.5,1.651 5.1,4.764 7.1,4.764c0.9,0 3,0.572 4.6,1.271c1.7,0.699 3.8,1.27 4.7,1.27c0.9,0 2.1,0.509 2.6,1.08c0.9,0.953 1.3,0.953 5.4,0c2.8,-0.698 4.9,-1.715 5.6,-2.668c0.6,-0.889 1.6,-1.588 2.2,-1.588c1.5,-0 5,2.414 5,3.494c-0,0.508 0.7,0.953 1.6,0.953c2.4,-0 16.1,7.496 16.8,9.148c0.4,1.016 2,1.779 4.9,2.541c5.6,1.334 9.5,1.271 15.3,-0.254c4.2,-1.144 4.9,-1.207 6.4,-0.318c1.2,0.699 4,0.953 10.9,0.953c9.1,0 9.2,0 12.4,-2.16c1.8,-1.143 4,-2.287 4.9,-2.477c2.3,-0.509 8.8,-6.988 8.8,-8.64c-0,-0.826 1.2,-1.715 3,-2.287c1.9,-0.635 3,-1.461 3,-2.287c-0,-2.986 9.6,-7.814 13.6,-6.861c1.1,0.254 3,1.207 4.3,2.096c2.1,1.398 3.3,1.652 8,1.652c5.5,0 5.7,-0.063 12.3,-4.066c3.7,-2.16 7,-4.764 7.3,-5.654c0.4,-0.889 2.1,-2.223 3.8,-2.922c1.8,-0.699 5.7,-2.414 8.7,-3.812c3,-1.397 7.6,-3.239 10.1,-4.129c2.5,-0.889 5.7,-2.16 7,-2.859c1.3,-0.762 3.6,-1.905 5.2,-2.668c1.6,-0.762 2.7,-1.906 2.7,-2.795c-0,-0.826 0.5,-1.715 1.1,-1.906c0.6,-0.254 0.9,-2.287 0.8,-4.891c-0.2,-3.113 3.011,-2.804 3.911,-3.185c1.1,-0.445 3.502,-1.331 4.698,-1.271c3.769,0.192 1.987,1.878 4.119,2.784c2.132,0.905 3.863,0.979 8.431,-0.242c3.428,-0.915 -3.104,-1.6 7.941,-1.832l0,-88.032l-1440,0Z" style="fill:#fff;fill-rule:nonzero;"/>
</svg>
