<?xml version="1.0" encoding="UTF-8" standalone="no"?>
<!DOCTYPE svg PUBLIC "-//W3C//DTD SVG 1.1//EN" "http://www.w3.org/Graphics/SVG/1.1/DTD/svg11.dtd">
<svg width="100%" height="100%" viewBox="0 0 1072 130" version="1.1" xmlns="http://www.w3.org/2000/svg" xml:space="preserve" style="fill-rule:evenodd;clip-rule:evenodd;stroke-linejoin:round;stroke-miterlimit:2;">
    <path d="M0,130.017l0,-106.515c0,0 1.381,-0.274 2.688,0.219c0.804,0.303 1.823,2.452 1.823,2.452c1.186,0 2.6,1.245 3.889,0.706c1.17,-0.489 2.3,0.94 3.224,1.588c0.622,0.437 0.403,2.051 1.486,2.509c1.333,0.564 1.237,3.48 2.317,3.52c1.182,0.043 2.064,1.247 3.269,1.309c1.158,0.059 1.713,0.981 2.598,1.014c1.564,0.092 2.124,-0.647 3.292,-1.387c0.667,-0.422 1.843,-0.35 2.735,-1.367c0.687,-0.758 1.234,-1.336 1.725,-1.779c1.371,-1.236 2.301,-1.42 4.603,-1.526c2.754,-0.143 3.871,0.216 5.36,1.509c1.712,1.58 2.808,-1.807 8.242,-2.094c3.946,-0.288 6.275,3.387 8.21,4.033c4.169,1.365 6.775,1.221 9.306,-0.502c1.786,-1.365 2.456,-1.437 4.466,-0.719c2.085,0.647 2.531,0.575 3.797,-0.862c0.819,-0.862 1.936,-2.586 2.457,-3.879c0.849,-1.802 1.397,-2.4 4.001,-2.962c0.82,-0.177 1.844,-0.351 3.145,-0.557c0.884,-0.137 2.105,0.111 2.894,0.014c1.232,-0.151 1.972,-0.62 3.036,-0.678c1.322,-0.071 2.544,0.539 3.739,0.609c1.123,0.065 2.223,-0.419 3.359,-0.233c0.783,0.135 2.223,1.735 3.366,0.968c0.821,-0.552 1.699,0.164 2.573,-0.117c1.588,-0.511 3.312,0.414 4.856,0.586c1.422,0.167 3.864,-0.438 5.077,-0.844c1.565,-0.524 1.76,2.68 2.805,2.089c0.781,-0.442 1.899,0.588 3.379,0.489c1.667,-0.113 3.456,2.014 4.595,2.863c1.415,1.006 2.978,1.868 3.574,1.868c0.595,0 2.382,1.149 3.945,2.514c1.861,1.58 3.722,2.514 5.062,2.514c1.34,0 3.127,0.862 4.839,2.442c3.052,2.586 4.244,3.089 8.71,3.664c2.159,0.215 3.35,0 4.318,-0.862c0.893,-0.791 2.754,-1.222 5.062,-1.293c2.308,-0.072 4.169,-0.503 5.062,-1.293c0.745,-0.647 2.085,-1.221 2.978,-1.221c0.894,0 1.638,-0.288 1.638,-0.719c0,-0.359 0.447,-0.718 0.968,-0.718c0.446,0 2.754,-0.79 5.062,-1.724c2.457,-0.934 4.69,-1.437 5.286,-1.078c0.521,0.288 2.605,0.216 4.541,-0.215c3.052,-0.575 3.871,-0.503 6.179,0.79c3.052,1.724 5.285,1.868 7.295,0.431c0.893,-0.646 3.127,-1.077 5.881,-1.077c3.276,0 4.839,-0.36 6.254,-1.437c1.116,-0.862 3.052,-1.437 4.69,-1.437c2.158,0 3.052,-0.431 3.945,-1.724c1.001,-1.423 2.747,-2.127 8.166,-2.569c1.085,-0.089 2.401,0.416 3.803,0.345c1.494,-0.076 3.096,-0.727 5.004,-0.792c3.487,-0.102 5.094,-1.684 7.161,-1.643c1.543,0.032 3.821,1.72 4.748,1.548c1.359,-0.252 2.092,-1.286 2.608,-1.701c1.191,-0.934 10.571,-0.719 12.581,0.287c0.819,0.431 2.68,1.006 4.095,1.293c1.414,0.287 3.945,0.934 5.583,1.365c3.424,1.005 10.497,0.934 15.261,-0.072c5.435,-1.149 8.561,-0.287 10.943,3.089c2.01,2.801 2.829,3.519 5.435,4.453c0.595,0.288 2.308,1.15 3.722,1.94c2.159,1.293 3.871,1.58 10.273,1.652c7.222,0.072 7.817,0.215 9.157,1.796c0.893,1.077 1.191,1.939 0.745,2.226c-0.447,0.216 0.446,0.431 2.01,0.431c4.615,0.072 9.975,0.862 10.868,1.724c1.117,1.078 1.936,0.862 1.936,-0.574c0,-0.719 0.447,-1.868 0.968,-2.586c1.638,-2.155 11.315,-1.796 17.866,0.574c3.723,1.365 5.435,1.724 6.477,1.15c0.968,-0.503 2.233,-0.359 4.318,0.287c2.159,0.718 3.127,0.79 3.275,0.287c0.149,-0.431 1.34,-0.79 2.68,-0.79c1.34,0 2.383,-0.287 2.383,-0.646c0,-0.359 0.372,-0.431 0.744,-0.216c0.447,0.216 0.968,-0.072 1.191,-0.646c0.224,-0.647 0.819,-1.15 1.266,-1.15c0.372,0 1.861,-0.79 3.275,-1.867c4.169,-3.089 7.073,-3.879 12.805,-3.592c3.052,0.216 5.434,0 5.732,-0.431c0.223,-0.359 1.266,-0.503 2.308,-0.215c0.968,0.215 4.466,0.574 7.668,0.718c3.275,0.216 6.625,0.718 7.444,1.221c1.191,0.719 1.787,0.719 2.978,0c1.265,-0.718 1.861,-0.646 3.499,0.359c1.116,0.719 2.68,1.868 3.424,2.586c1.191,1.15 1.489,1.15 3.573,0.144c1.862,-1.006 2.457,-1.006 3.425,-0.215c1.563,1.221 6.774,1.221 7.295,0c0.298,-0.719 1.564,-0.862 4.839,-0.575c2.531,0.215 4.765,0.575 5.137,0.718c0.298,0.216 1.489,-0.143 2.606,-0.718c2.68,-1.293 3.722,-1.293 4.913,0.072c0.744,0.862 1.414,0.574 4.615,-1.796c2.01,-1.58 3.946,-2.873 4.169,-2.945c5.733,-0.718 9.083,-0.503 11.688,0.79c1.638,0.79 3.35,1.437 3.946,1.437c0.521,0 2.159,0.862 3.499,1.867c2.903,2.083 8.858,3.304 8.188,1.652c-0.223,-0.646 0.819,-1.58 3.053,-2.586c3.052,-1.508 3.647,-1.508 5.434,-0.646c6.03,3.089 8.412,3.879 10.348,3.304c1.117,-0.359 2.903,-0.79 4.094,-1.005c1.117,-0.288 2.01,-0.934 2.01,-1.509c0,-0.575 0.67,-1.077 1.489,-1.077c0.819,0 1.712,-0.503 1.936,-1.078c0.298,-0.575 0.893,-1.077 1.489,-1.077c0.595,0 1.042,-0.503 1.042,-1.078c0,-0.646 0.67,-1.077 1.787,-1.077c1.042,0 2.084,-0.359 2.307,-0.719c0.596,-1.005 3.797,-0.933 5.807,0.144c0.893,0.431 3.276,0.718 5.211,0.647c2.01,-0.072 4.02,0.143 4.467,0.502c1.191,1.006 5.658,1.293 8.486,0.647c1.638,-0.431 3.053,-0.287 4.467,0.503c1.34,0.646 4.243,1.005 7.668,1.005c9.157,0.072 17.876,4.385 18.918,5.39c1.117,1.15 1.936,0.575 1.34,-0.934c-0.372,-0.933 -0.074,-1.077 1.563,-0.646c2.01,0.503 2.01,0.431 0.894,-1.078c-0.968,-1.364 -0.968,-1.867 -0.149,-3.447c2.531,-4.669 4.541,-5.1 11.613,-2.586c3.276,1.149 12.283,5.366 15.336,5.581c0.819,0.072 2.084,0.575 2.754,1.078c1.712,1.437 7.593,2.945 9.38,2.514c0.819,-0.216 2.755,0.072 4.318,0.575c1.563,0.502 4.094,0.79 5.583,0.718c1.489,-0.072 2.904,0.215 3.201,0.575c0.447,0.79 3.341,-3.164 4.756,-4.528c0.521,-0.431 1.34,-0.719 1.861,-0.575c0.521,0.144 2.605,0.431 4.69,0.646c3.424,0.431 4.169,0.216 6.104,-1.364c1.191,-1.006 2.755,-3.93 3.499,-3.93c0.67,0 2.308,-1.006 3.573,-2.155c5.658,-5.244 8.785,-7.183 11.688,-7.183c1.638,0 3.127,0.359 3.425,0.79c0.297,0.503 1.563,0.647 3.35,0.359c3.424,-0.503 6.402,0.647 10.347,4.166c1.564,1.365 4.095,2.658 6.328,3.233c2.085,0.431 5.062,1.437 6.7,2.155c8.263,3.663 11.613,4.238 13.996,2.298c0.67,-0.431 2.754,-1.005 4.615,-1.221c1.936,-0.143 6.924,-0.79 11.018,-1.365c12.134,-1.723 19.058,-1.149 21.44,1.868c0.968,1.221 1.638,1.437 3.276,1.078c1.116,-0.288 3.126,-0.144 4.392,0.287c1.861,0.575 3.052,0.503 5.136,-0.359c2.532,-1.006 3.053,-1.006 6.849,0.287c2.234,0.79 5.063,2.083 6.328,2.945c1.712,1.149 2.829,1.437 4.318,1.078c2.903,-0.719 9.082,-0.503 11.539,0.502c1.712,0.647 2.308,0.575 2.754,-0.071c0.372,-0.575 1.191,-0.791 2.234,-0.431c1.265,0.359 1.488,0.287 1.116,-0.36c-0.298,-0.502 -0.298,-0.79 0.075,-0.574c6.03,2.801 10.496,4.166 9.677,2.873c-0.521,-0.862 1.415,-3.017 2.829,-3.017c1.564,0 5.956,1.58 7.147,2.514c2.531,2.083 4.616,2.012 6.253,0c1.638,-2.011 1.713,-2.011 4.988,-0.934c2.308,0.719 3.946,1.94 5.509,4.023c1.266,1.652 2.903,2.945 3.722,2.945c0.819,0.072 2.457,0.862 3.722,1.796c2.159,1.652 2.234,1.652 3.425,0.287c2.159,-2.37 5.509,-2.801 12.134,-1.508c6.849,1.293 11.167,3.16 12.358,5.243c0.447,0.791 1.415,1.437 2.159,1.437c1.414,0 2.606,1.796 1.936,2.873c-0.224,0.359 0.595,0.216 1.786,-0.215c1.936,-0.647 2.531,-0.503 5.286,1.293c1.712,1.149 3.275,2.514 3.499,3.017c0.223,0.503 0.744,0.934 1.191,0.934c0.446,0 2.084,1.364 3.573,3.016c2.308,2.658 2.903,2.946 3.871,2.155c0.745,-0.646 1.34,-2.801 1.712,-5.962c0.298,-2.873 0.819,-4.956 1.34,-4.956c0.447,0 2.159,-1.293 3.797,-2.873c1.638,-1.509 3.425,-2.802 3.946,-2.874c0.893,0 5.062,-2.442 6.104,-3.591c0.745,-0.718 4.913,-3.017 9.008,-4.813c2.531,-1.149 4.839,-2.801 5.881,-4.31c1.191,-1.724 2.233,-2.37 3.722,-2.37c1.117,0 2.606,-0.647 3.35,-1.437c1.638,-1.724 5.732,-1.939 7.072,-0.359c0.522,0.575 1.34,1.078 1.787,1.078c0.521,0 1.266,0.431 1.787,0.933c0.521,0.431 3.275,1.653 6.253,2.658c3.201,1.078 5.658,2.371 6.105,3.233c0.446,0.79 0.893,1.58 0.967,1.724c0.075,0.143 1.564,-0.431 3.201,-1.293c2.829,-1.365 3.202,-1.437 5.212,-0.431c2.828,1.436 10.72,1.436 12.134,0c0.596,-0.575 3.276,-2.227 5.881,-3.736c3.35,-1.867 5.509,-2.657 7.445,-2.586c2.456,0.144 3.126,-0.287 5.583,-3.088c2.605,-2.874 3.201,-3.161 6.328,-3.305c2.754,-0.143 3.871,0.216 5.36,1.509c1.712,1.58 2.307,1.652 7.742,1.365c3.945,-0.288 6.774,-0.072 8.71,0.574c4.169,1.365 6.774,1.221 9.305,-0.502c1.787,-1.365 2.457,-1.437 4.467,-0.719c2.085,0.647 2.531,0.575 3.797,-0.862c0.819,-0.862 1.935,-2.586 2.456,-3.879c0.596,-1.221 1.638,-2.37 2.457,-2.586c2.159,-0.646 7.817,-1.436 10.273,-1.508l2.606,-0.65l0,106.515l-1072,0Zm937.553,-39.062c0.596,0.216 0.745,-0.575 0.596,-2.442c-0.223,-1.868 0.074,-3.017 0.893,-3.664c2.234,-1.795 1.042,-5.818 -1.712,-5.818c-0.596,0 -2.01,-0.862 -3.201,-1.939c-1.563,-1.437 -3.052,-1.94 -5.956,-2.227l-3.945,-0.287l-0.745,3.088c-0.67,2.73 -0.297,10.272 0.521,11.062c0.149,0.144 1.415,0.503 2.755,0.719c1.414,0.215 2.903,0.646 3.275,0.862c1.415,0.862 5.36,1.436 6.03,0.862c0.373,-0.288 1.043,-0.36 1.489,-0.216Z" style="fill:#fff;fill-opacity:0.7;fill-rule:nonzero;"/>
    <path d="M1072,130l0,-106.459l-5.445,0c-2.532,-1.086 -1.684,1.749 -6.51,1.947c-4.473,0.184 -4.336,-0.387 -7.527,0.383c-1.191,-0.542 -4.559,0.482 -5.115,-1.408c-0.223,-0.76 -0.789,-0.727 -3.543,-2.572c-4.913,-3.42 -5.062,-3.475 -9.157,-3.475c-3.499,0 -4.392,0.217 -5.955,1.412c-0.968,0.76 -2.382,1.574 -3.201,1.791c-2.978,0.814 -10.125,-3.311 -10.125,-5.863c0,-0.706 -0.819,-1.411 -2.233,-1.954c-1.34,-0.489 -2.233,-1.249 -2.233,-1.954c0,-1.412 -4.839,-6.949 -6.552,-7.383c-0.67,-0.163 -2.307,-1.14 -3.647,-2.118c-2.383,-1.845 -2.457,-1.845 -9.231,-1.845c-5.137,0 -7.222,0.217 -8.115,0.814c-1.117,0.76 -1.638,0.706 -4.764,-0.271c-4.318,-1.303 -7.221,-1.358 -11.39,-0.218c-2.159,0.652 -3.35,1.303 -3.648,2.172c-0.521,1.411 -10.72,7.817 -12.507,7.817c-0.67,0 -1.191,0.38 -1.191,0.814c0,0.923 -2.605,2.986 -3.722,2.986c-0.447,0 -1.191,-0.597 -1.638,-1.357c-0.521,-0.814 -2.084,-1.683 -4.169,-2.28c-3.052,-0.814 -3.35,-0.814 -4.02,0c-0.372,0.489 -1.265,0.923 -1.935,0.923c-0.67,0 -2.308,0.488 -3.499,1.086c-1.266,0.597 -2.755,1.085 -3.425,1.085c-1.489,0 -4.913,2.66 -5.285,4.072c-0.149,0.651 -0.968,1.14 -2.085,1.248c-2.68,0.272 -4.392,1.629 -4.913,3.855c-0.298,1.085 -0.744,2.334 -1.117,2.823c-0.744,1.031 -6.104,3.202 -7.816,3.202c-0.819,0 -1.117,0.326 -0.819,1.086c0.223,0.706 0,1.086 -0.596,1.086c-0.595,0 -1.34,0.434 -1.712,0.923c-0.67,0.814 -1.489,0.651 -7.668,-1.629c-3.871,-1.411 -7.668,-2.551 -8.412,-2.551c-0.819,0 -2.754,1.031 -4.467,2.28c-2.456,1.954 -3.499,2.334 -6.03,2.443c-6.551,0.163 -13.474,0.76 -15.335,1.303c-2.085,0.597 -5.286,3.311 -5.881,5.102c-0.447,1.032 -1.117,1.086 -10.05,1.086c-5.36,0.054 -10.05,0.217 -10.571,0.434c-0.447,0.218 -1.117,0.109 -1.34,-0.217c-0.522,-0.597 -3.574,-0.38 -8.189,0.597c-1.266,0.272 -4.02,0.76 -6.179,1.086c-3.574,0.597 -4.095,0.543 -5.509,-0.326c-2.457,-1.682 -3.797,-4.125 -3.648,-6.785c0.149,-2.226 -0.074,-2.606 -2.754,-4.126c-3.127,-1.846 -9.306,-3.04 -14.889,-2.877c-1.787,0 -3.722,-0.217 -4.244,-0.543c-1.191,-0.706 -4.466,-0.869 -6.774,-0.326c-1.936,0.434 -6.551,-1.357 -9.008,-3.42c-1.414,-1.248 -2.159,-1.411 -7.072,-1.52c-7.296,-0.108 -20.1,1.629 -22.482,3.04c-0.596,0.38 -1.787,0.38 -3.499,0.054c-3.648,-0.76 -4.988,-0.651 -6.402,0.543c-0.745,0.597 -1.936,1.086 -2.68,1.086c-1.266,0 -5.137,1.954 -9.231,4.614c-0.894,0.598 -2.234,2.28 -2.978,3.746c-1.787,3.474 -3.276,4.234 -5.584,2.66c-2.531,-1.737 -14.74,-2.823 -17.345,-1.574c-2.457,1.194 -5.509,1.086 -7.445,-0.217c-1.563,-1.086 -1.786,-1.086 -4.913,-0.326c-1.787,0.489 -4.318,0.869 -5.509,0.869c-1.265,0 -3.052,0.38 -4.094,0.814c-4.169,1.737 -7.817,0.597 -7.296,-2.226c0.224,-1.357 -0.298,-1.737 -4.615,-3.583c-2.68,-1.14 -5.211,-2.063 -5.584,-2.063c-0.446,0 -1.414,-0.923 -2.233,-2.063c-0.968,-1.357 -2.084,-2.062 -3.35,-2.171c-1.042,-0.109 -2.233,-0.434 -2.606,-0.706c-0.675,-0.352 -4.465,-0.711 -6.99,0.52c-1.792,0.873 -4.836,-0.925 -7.898,-0.791c-1.841,0.086 -3.485,0.832 -4.874,0.923c-1.595,0.106 -4.08,-1.794 -6.139,-1.987c-2.125,-0.199 -3.827,1.305 -5.737,1.172c-7.743,-0.488 -12.73,1.575 -11.614,4.832c0.372,1.031 0,1.9 -1.414,3.203c-1.042,0.977 -1.861,2.063 -1.861,2.443c0,0.38 -0.968,0.923 -2.234,1.194c-1.191,0.326 -2.233,0.814 -2.233,1.086c0,0.76 -5.732,3.203 -7.593,3.203c-2.904,0 -6.551,1.954 -6.551,3.528c0,1.52 -1.862,2.443 -4.988,2.443c-1.787,0 -2.531,0.489 -4.467,2.877c-1.265,1.52 -2.457,3.312 -2.68,3.909c-0.149,0.597 -0.372,0.054 -0.447,-1.194c-0.074,-1.846 -0.446,-2.498 -1.935,-3.203c-1.563,-0.76 -1.861,-1.303 -1.861,-3.746c0,-1.683 -0.372,-3.094 -0.968,-3.42c-0.521,-0.326 -3.797,-0.977 -7.296,-1.412c-5.434,-0.705 -6.774,-1.085 -9.156,-2.714c-3.127,-2.063 -5.286,-2.497 -13.847,-2.606c-3.052,-0.054 -5.955,-0.271 -6.402,-0.542c-1.415,-0.76 -7.296,-2.226 -9.603,-2.335c-1.266,-0.108 -5.733,-0.325 -10.05,-0.543c-4.542,-0.217 -8.264,-0.705 -8.934,-1.085c-0.595,-0.435 -2.159,-0.815 -3.35,-0.923c-1.638,-0.109 -2.308,-0.489 -2.456,-1.357c-0.373,-1.738 -3.648,-2.118 -6.179,-0.76c-3.053,1.682 -4.244,1.411 -5.956,-1.249c-1.414,-2.28 -1.712,-2.443 -5.211,-2.769c-3.201,-0.325 -4.02,-0.217 -5.434,0.76c-1.192,0.815 -1.862,0.978 -2.457,0.543c-1.266,-0.923 -7.147,-0.76 -9.38,0.272c-1.266,0.651 -2.68,0.868 -4.02,0.651c-4.541,-0.706 -9.306,2.714 -7.966,5.809c0.298,0.76 -0.297,1.194 -2.605,1.9c-1.861,0.597 -3.127,1.357 -3.425,2.171c-0.223,0.652 -0.744,1.195 -1.116,1.195c-0.447,0 -0.745,0.325 -0.745,0.705c0,0.435 -0.521,1.52 -1.191,2.443c-0.893,1.357 -1.414,1.629 -2.382,1.249c-0.67,-0.272 -3.648,-0.597 -6.626,-0.815c-6.03,-0.434 -10.496,0.543 -11.166,2.389c-0.224,0.597 -0.67,0.923 -1.043,0.76c-0.372,-0.163 -3.275,-0.326 -6.402,-0.326c-4.02,-0.054 -6.476,-0.38 -8.04,-1.031c-1.265,-0.489 -4.392,-1.357 -7.072,-1.9c-2.68,-0.543 -6.849,-1.52 -9.231,-2.226c-2.457,-0.706 -5.211,-1.248 -6.179,-1.248c-0.968,0 -2.159,-0.598 -2.903,-1.412c-0.968,-1.031 -1.713,-1.303 -2.829,-1.031c-1.638,0.325 -6.477,0.76 -10.944,0.977c-2.828,0.163 -5.434,1.248 -4.764,2.063c0.223,0.217 -0.298,0.705 -1.117,1.031c-1.042,0.38 -1.489,1.032 -1.34,1.846c0.075,0.651 -0.521,1.9 -1.489,2.714c-0.893,0.869 -1.637,2.009 -1.637,2.497c0,0.543 -0.521,1.249 -1.191,1.683c-0.596,0.38 -0.968,1.14 -0.819,1.683c0.595,1.574 -0.447,1.574 -6.551,0.109c-4.169,-1.086 -6.179,-1.303 -7.296,-0.923c-2.01,0.597 -9.082,0.488 -11.241,-0.272c-0.819,-0.271 -2.829,-0.922 -4.392,-1.411c-2.085,-0.651 -2.755,-1.14 -2.457,-1.792c0.298,-0.434 0.074,-1.194 -0.447,-1.682c-0.521,-0.435 -0.819,-0.869 -0.67,-0.869c0.149,-0.054 -0.074,-0.977 -0.595,-2.117c-0.745,-1.629 -1.712,-2.334 -4.616,-3.366c-1.935,-0.76 -4.318,-1.357 -5.136,-1.357c-1.862,0 -6.7,2.226 -6.7,3.04c0,0.326 -0.522,0.923 -1.117,1.303c-0.968,0.543 -1.415,0.543 -2.457,-0.109c-1.861,-1.194 -3.945,-1.411 -8.412,-0.923c-4.094,0.489 -5.881,0 -5.881,-1.52c0,-0.434 -1.117,-2.117 -2.382,-3.745c-2.01,-2.443 -2.755,-2.932 -4.541,-2.932c-3.127,0 -4.988,-0.923 -4.988,-2.443c0,-1.574 -3.648,-3.528 -6.551,-3.528c-1.861,0 -7.594,-2.443 -7.594,-3.203c0,-0.272 -0.967,-0.76 -2.233,-1.086c-1.191,-0.271 -2.233,-0.814 -2.233,-1.194c0,-0.38 -0.819,-1.466 -1.861,-2.443c-1.415,-1.303 -1.787,-2.172 -1.415,-3.203c1.117,-3.257 -3.871,-5.32 -11.613,-4.831c-4.69,0.325 -7.445,0.325 -16.75,-0.109c-8.71,-0.38 -13.847,-0.271 -14.889,0.271c-0.372,0.272 -1.563,0.598 -2.606,0.706c-1.265,0.109 -2.382,0.814 -3.35,2.172c-0.819,1.14 -1.861,2.062 -2.233,2.062c-0.447,0 -2.903,0.923 -5.583,2.063c-4.318,1.846 -4.839,2.226 -4.616,3.583c0.521,2.823 -3.127,3.963 -7.295,2.226c-1.043,-0.434 -2.904,-0.814 -4.095,-0.814c-1.265,0 -3.722,-0.38 -5.509,-0.869c-3.126,-0.76 -3.35,-0.76 -4.913,0.326c-1.936,1.303 -4.988,1.411 -7.445,0.217c-2.605,-1.249 -14.814,-0.163 -17.345,1.574c-2.308,1.575 -3.797,0.815 -5.583,-2.66c-0.745,-1.466 -2.085,-3.148 -2.978,-3.746c-4.095,-2.66 -7.966,-4.614 -9.231,-4.614c-0.745,0 -1.936,-0.488 -2.68,-1.086c-1.415,-1.194 -2.755,-1.302 -6.403,-0.542c-1.712,0.325 -2.903,0.325 -3.498,-0.055c-2.383,-1.411 -15.187,-3.148 -22.483,-3.04c-4.913,0.109 -5.657,0.272 -7.072,1.52c-2.457,2.063 -7.072,3.855 -9.008,3.42c-2.307,-0.543 -5.583,-0.38 -6.774,0.326c-0.521,0.326 -2.457,0.543 -4.243,0.543c-5.584,-0.163 -11.763,1.031 -14.889,2.877c-2.68,1.52 -2.904,1.9 -2.755,4.126c0.149,2.66 -1.191,5.103 -3.648,6.786c-1.414,0.868 -1.935,0.922 -5.508,0.325c-2.159,-0.325 -4.988,-0.814 -6.179,-1.085c-4.244,-0.923 -7.668,-1.195 -8.115,-0.652c-0.223,0.272 -2.01,0.326 -4.318,0.054c-2.158,-0.217 -5.806,-0.38 -8.04,-0.271c-2.233,0.109 -3.544,-0.575 -4.512,-0.521l-2.932,-0l0,106.476l1072,-0.017Z" style="fill:#fff;fill-opacity:0.7;fill-rule:nonzero;"/>
    <path d="M1072,130.017l-0,-55.602c-0,0 -5.19,-1.163 -5.797,-2.557c-1.144,-2.632 -9.109,-2.532 -10.671,-2.201c-2.528,0.474 -3.124,0.426 -4.462,-0.378c-2.529,-1.468 -9.014,-0.546 -8.865,-2.865c0.149,-1.941 -0.074,-2.272 -2.752,-3.597c-3.124,-1.609 -0.071,-6.336 -5.649,-6.194c-1.785,0 -4.34,-7.01 -4.861,-7.294c-1.19,-0.615 -4.463,-0.757 -6.769,-0.284c-1.933,0.379 -6.544,-1.183 -8.998,-2.981c-1.414,-1.089 -2.157,-1.231 -7.067,-1.325c-3.4,-0.045 -2.392,-5.526 -6.99,-5.658c-6.063,-0.173 -8.959,-2.805 -10.228,-2.149c-0.595,0.331 -1.785,0.331 -3.496,0.048c-3.644,-0.663 -4.983,-0.568 -6.396,0.473c-0.744,0.52 -1.933,0.946 -2.678,0.946c-1.264,0 -5.131,1.704 -9.222,4.023c-0.892,0.521 -2.231,1.988 -2.975,3.266c-1.785,3.029 -3.272,3.692 -5.578,2.319c-2.529,-1.514 -14.726,-2.461 -17.33,-1.372c-2.454,1.041 -5.503,0.946 -7.437,-0.19c-1.562,-0.946 -1.785,-0.946 -4.908,-0.284c-1.786,0.426 -4.314,0.758 -5.504,0.758c-1.265,0 -3.05,0.331 -4.092,0.71c-4.165,1.514 -7.808,0.52 -7.288,-1.941c0.223,-1.183 -0.297,-1.514 -4.611,-3.124c-2.678,-0.994 -5.207,-1.798 -5.578,-1.798c-0.447,0 -1.414,-0.805 -2.231,-1.799c-0.967,-1.183 -2.083,-1.798 -3.347,-1.893c-1.042,-0.094 -2.232,-0.378 -2.604,-0.615c-0.346,-0.158 -1.168,0.201 -2.4,0.129c-0.679,-0.04 -1.466,-0.54 -2.402,-0.553c-1.133,-0.015 -2.455,0.477 -3.957,0.501c-0.865,0.014 -1.914,-0.727 -2.898,-0.817c-1.047,-0.096 -2.038,0.458 -3.218,0.503c-1.111,0.046 -1.892,-1.026 -2.95,-0.841c-0.977,0.17 -1.623,-0.762 -2.538,-0.745c-1.587,0.029 -2.681,-1.497 -3.764,-1.483c-0.52,0.006 -1.374,0.056 -1.8,0.275c-0.575,0.296 -0.715,0.799 -1.444,0.967c-0.733,0.17 -1.453,0.525 -2.2,0.753c-1.11,0.338 -1.177,1.221 -2.038,1.169c-1.181,-0.065 -2.527,0.714 -3.36,0.227c-1.271,-0.743 -2.49,0.343 -3.49,0.071c-1.235,-0.336 -2.077,0.669 -3.413,0.773c-1.383,0.108 -1.738,2.128 -1.339,3.141c0.371,0.899 -0,1.657 -1.414,2.793c-1.041,0.852 -1.859,1.798 -1.859,2.129c-0,0.332 -0.967,0.805 -2.231,1.042c-1.19,0.284 -2.231,0.71 -2.231,0.946c-0,0.663 -5.728,2.793 -7.587,2.793c-2.9,0 -6.545,1.703 -6.545,3.076c0,1.325 -1.859,2.13 -4.983,2.13c-1.785,0 -2.529,0.426 -4.537,2.556c-1.264,1.419 -2.38,2.887 -2.38,3.265c0,0.946 -0.909,1.434 -2.916,1.481c-0.805,0.019 -1.788,-0.034 -2.959,-0.155c-0.71,-0.068 -1.358,-0.4 -1.955,-0.446c-0.806,-0.061 -1.518,0.175 -2.157,0.19c-0.967,0.021 -1.892,-0.268 -2.6,-0.079c-0.666,0.177 -1.128,0.823 -1.692,1.139c-1.042,0.568 -1.488,0.568 -2.455,0.095c-0.596,-0.332 -1.116,-0.852 -1.116,-1.136c-0,-0.361 -1.046,-1.579 -2.718,-1.618c-1.424,-0.034 -3.061,-1.033 -3.976,-1.033c-0.549,0 -1.761,-0.183 -3.112,0.172c-0.659,0.174 -1.385,0.794 -2.019,1.012c-1.757,0.559 -2.954,1.126 -4.184,1.616c-1.431,0.569 -1.027,2.035 -1.171,3.117c-0,0.284 -0.373,0.709 -0.744,0.993c-0.372,0.284 -0.521,0.9 -0.223,1.278c0.298,0.568 -0.372,0.994 -2.455,1.562c-1.561,0.426 -3.57,0.994 -4.388,1.231c-1.19,0.365 -3.784,1.341 -6.289,1.353c-2.035,0.01 -4.041,-0.883 -4.941,-1.117c-1.116,-0.331 -3.124,-0.142 -7.29,0.805c-6.098,1.278 -7.139,1.278 -6.544,-0.095c0.148,-0.473 -0.223,-1.136 -0.819,-1.467c-0.669,-0.378 -1.19,-0.994 -1.19,-1.467c0,-0.426 -0.743,-1.42 -1.636,-2.177c-0.966,-0.71 -1.562,-1.799 -1.487,-2.367c0.148,-0.71 -0.297,-1.278 -1.338,-1.609c-0.819,-0.284 -1.339,-0.71 -1.116,-0.899c0.669,-0.71 -1.935,-1.657 -4.761,-1.799c-1.847,-0.078 -3.758,-1.533 -5.481,-1.656c-2.437,-0.174 -4.493,0.971 -5.452,0.805c-1.116,-0.237 -1.859,0 -2.826,0.899c-0.743,0.71 -1.933,1.23 -2.9,1.23c-0.967,0 -3.794,-0.681 -6.249,-0.065c-1.394,0.36 -3.544,3.123 -5.289,2.355c-1.61,-0.709 -2.749,0.543 -3.858,0.739c-2.678,0.474 -5.876,1.231 -7.065,1.657c-0.916,0.333 -2.717,-1.234 -4.759,-0.88c-1.946,0.338 -2.595,-1.068 -3.409,-1.495c-1.324,-0.693 -2.314,0.804 -4.096,1.362c-1.64,0.513 -1.987,2.128 -2.166,2.196c-0.372,0.142 -3.526,-0.581 -3.749,-1.101c-0.67,-1.61 -2.423,-2.023 -8.448,-1.644c-2.975,0.189 -5.95,0.473 -6.619,0.71c-0.968,0.331 -1.488,0.095 -2.38,-1.089c-0.67,-0.804 -1.19,-1.751 -1.19,-2.129c-0,-0.332 -0.298,-0.616 -0.744,-0.616c-0.372,0 -0.893,-0.473 -1.115,-1.041c-0.298,-0.71 -1.563,-1.372 -3.422,-1.893c-2.306,-0.615 -2.9,-0.994 -2.603,-1.657c1.339,-2.697 -3.422,-5.679 -7.958,-5.064c-1.339,0.19 -2.752,0 -4.017,-0.568c-2.23,-0.899 -8.106,-1.041 -9.371,-0.236c-0.595,0.378 -1.265,0.236 -2.455,-0.474c-1.412,-0.852 -2.23,-0.946 -5.428,-0.662c-3.496,0.284 -3.794,0.426 -5.207,2.413c-1.71,2.32 -2.901,2.556 -5.95,1.089c-2.529,-1.183 -5.801,-0.852 -6.173,0.663c-0.149,0.757 -0.819,1.088 -2.454,1.183c-1.265,0.095 -2.752,0.426 -3.347,0.804c-0.669,0.332 -4.389,0.758 -8.926,0.947c-1.44,0.063 -3.924,-1.274 -5.282,-1.214c-2.707,0.119 -3.965,1.624 -4.758,1.687c-1.171,0.048 -3.031,1.258 -4.992,1.681c-1.9,0.41 -3.907,0.028 -4.602,0.354c-0.272,0.145 -0.798,-2.653 -3.176,-2.484c-1.456,0.103 -2.253,-1.359 -3.444,-1.341c-1.571,0.018 -2.654,1.416 -4.354,1.638c-1.889,0.247 -2.52,1.732 -3.43,1.82c-3.013,0.292 -3.868,1.985 -5.826,3.113c-2.38,1.419 -3.719,1.751 -9.149,2.366c-3.495,0.379 -6.768,0.947 -7.288,1.231c-0.595,0.284 -0.967,1.514 -0.967,2.981c-0,2.13 -0.298,2.603 -1.859,3.266c-1.488,0.615 -1.86,1.183 -1.935,2.792c-0.074,1.089 -0.296,1.562 -0.445,1.042c-0.224,-0.521 -1.414,-2.083 -2.678,-3.408c-1.934,-2.083 -2.677,-2.508 -4.463,-2.508c-3.124,0 -4.983,-0.805 -4.983,-2.13c0,-1.373 -3.643,-3.077 -6.545,-3.077c-1.859,0 -7.586,-2.129 -7.586,-2.792c0,-0.237 -1.041,-0.663 -2.231,-0.947c-1.264,-0.236 -2.232,-0.71 -2.232,-1.041c0,-0.331 -0.818,-1.278 -1.859,-2.13c-1.412,-1.136 -1.785,-1.893 -1.412,-2.792c1.114,-2.84 -3.868,-4.638 -11.604,-4.212c-2.927,0.177 -5.315,-1.541 -8.799,-1.608c-2.094,-0.041 -4.446,1.655 -7.935,1.513c-3.399,-0.129 -6.011,1.67 -8.29,1.668c-3.555,-0.003 -5.95,-1.72 -6.585,-1.431c-0.372,0.236 -1.562,0.52 -2.603,0.615c-1.265,0.095 -2.38,0.71 -3.347,1.893c-0.818,0.994 -1.859,1.799 -2.231,1.799c-0.446,0 -2.901,0.804 -5.578,1.798c-4.314,1.609 -4.835,1.941 -4.611,3.124c0.52,2.461 -3.124,3.455 -7.289,1.94c-1.041,-0.378 -2.901,-0.71 -4.09,-0.71c-1.265,0 -3.72,-0.331 -5.504,-0.757c-3.124,-0.663 -3.347,-0.663 -4.91,0.284c-1.933,1.136 -4.982,1.231 -7.437,0.189c-2.603,-1.088 -14.8,-0.142 -17.33,1.373c-2.304,1.372 -3.792,0.71 -5.577,-2.319c-0.744,-1.278 -2.082,-2.745 -2.976,-3.266c-4.09,-2.319 -7.957,-4.023 -9.222,-4.023c-0.743,0 -1.933,-0.426 -2.678,-0.946c-1.412,-1.042 -2.751,-1.136 -6.396,-0.474c-1.71,0.284 -2.9,0.284 -3.495,-0.047c-2.38,-1.231 -15.173,-2.745 -22.461,-2.651c-4.909,0.095 -5.653,0.237 -7.066,1.326c-2.454,1.798 -7.066,3.36 -8.999,2.981c-2.306,-0.473 -5.578,-0.331 -6.769,0.284c-0.521,0.284 -2.454,0.474 -4.239,0.474c-5.578,-0.142 -11.751,0.899 -14.875,2.508c-2.678,1.325 -2.901,1.657 -2.752,3.597c0.149,2.319 -1.19,4.449 -3.644,5.916c-1.413,0.757 -1.934,0.805 -5.504,0.284c-2.157,-0.284 -4.983,-0.71 -6.173,-0.946c-4.611,-0.852 -7.661,-1.042 -8.182,-0.521c-0.223,0.284 -0.892,0.379 -1.338,0.189c-0.521,-0.189 -5.207,-0.331 -10.562,-0.378c-8.924,0 -9.594,-0.048 -10.04,-0.947c-0.595,-1.562 -3.793,-3.928 -5.876,-4.449c-1.859,-0.473 -8.776,-0.994 -15.32,-1.136c-2.53,-0.094 -3.571,-0.426 -6.025,-2.13c-1.711,-1.088 -3.644,-1.987 -4.463,-1.987c-0.744,0 -4.536,0.994 -8.404,2.224c-6.173,1.988 -6.991,2.13 -7.661,1.42c-0.371,-0.426 -1.116,-0.805 -1.71,-0.805c-0.596,0 -0.818,-0.331 -0.596,-0.946c0.298,-0.663 0,-0.947 -0.818,-0.947c-1.71,0 -7.065,-1.893 -7.809,-2.792c-0.372,-0.426 -0.818,-1.515 -1.115,-2.461c-0.521,-1.941 -2.231,-3.124 -4.909,-3.361c-1.116,-0.094 -1.934,-0.52 -2.083,-1.088c-0.372,-1.231 -3.793,-3.55 -5.28,-3.55c-0.669,0 -2.232,-0.426 -3.422,-0.946c-1.264,-0.521 -2.826,-0.947 -3.496,-0.947c-0.669,0 -1.561,-0.379 -1.933,-0.805c-0.669,-0.71 -0.967,-0.71 -4.016,0c-2.083,0.521 -3.645,1.278 -4.165,1.988c-0.447,0.663 -1.19,1.183 -1.637,1.183c-1.116,0 -3.718,-1.798 -3.718,-2.603c-0,-0.378 -0.521,-0.71 -1.19,-0.71c-1.785,0 -11.975,-5.584 -12.495,-6.815c-0.298,-0.757 -1.488,-1.325 -3.645,-1.893c-4.165,-0.994 -7.065,-0.947 -11.379,0.189c-3.123,0.852 -3.645,0.899 -4.76,0.237c-0.893,-0.521 -2.975,-0.71 -8.107,-0.71c-6.768,0 -6.843,0 -9.223,1.609c-1.339,0.852 -2.975,1.704 -3.644,1.846c-1.711,0.379 -6.545,5.206 -6.545,6.437c-0,0.615 -0.892,1.278 -2.231,1.703c-1.413,0.474 -2.231,1.089 -2.231,1.704c-0,2.225 -7.14,5.822 -10.116,5.112c-0.818,-0.189 -2.231,-0.899 -3.198,-1.562c-1.561,-1.041 -2.454,-1.231 -5.949,-1.231c-4.091,0 -4.24,0.048 -9.149,3.03c-2.752,1.609 -5.206,3.549 -5.43,4.212c-0.296,0.662 -1.561,1.656 -2.825,2.177c-1.339,0.521 -4.24,1.798 -6.471,2.84c-2.231,1.041 -5.653,2.413 -7.512,3.076c-1.859,0.663 -4.239,1.609 -5.206,2.13c-0.967,0.568 -2.677,1.42 -3.867,1.988c-1.19,0.568 -2.009,1.42 -2.009,2.082c0,0.615 -0.371,1.278 -0.818,1.42c-0.446,0.189 -0.669,1.704 -0.595,3.644c0.149,2.319 -2.239,2.089 -2.908,2.373c-0.819,0.331 -2.605,0.992 -3.495,0.947c-2.803,-0.143 -1.478,-1.4 -3.063,-2.074c-1.586,-0.675 -2.874,-0.729 -6.272,0.18c-2.548,0.682 2.31,1.192 -5.905,1.365l0,55.602l1072,0Z" style="fill:#fff;fill-rule:nonzero;"/>
</svg>
