<?xml version="1.0" encoding="UTF-8" standalone="no"?>
<!DOCTYPE svg PUBLIC "-//W3C//DTD SVG 1.1//EN" "http://www.w3.org/Graphics/SVG/1.1/DTD/svg11.dtd">
<svg width="100%" height="100%" viewBox="0 0 401 139" version="1.1" xmlns="http://www.w3.org/2000/svg" xml:space="preserve" style="fill-rule:evenodd;clip-rule:evenodd;stroke-linejoin:round;stroke-miterlimit:2;">
    <path d="M34.185,72.161l-26.996,33.018l4.441,9.927l70.651,-11.278l4.839,-9.808l-52.935,-21.859Z" style="fill:#039cb1;"/>
    <path d="M64.717,115.106l89.028,-76.341l107.944,84.292l-114.694,7.943l-82.373,-7.943l0.095,-7.951Z" style="fill:#0297ac;"/>
    <path d="M93.267,17.345l-12.11,24.168l-20.996,24.342l7.904,13.834l18.309,7.972l27.01,-12.026l19.184,-25.283l-7.083,-9.274l-32.218,-23.733Z" style="fill:#03a2b5;"/>
    <path d="M293.875,133.519c0.272,-1.027 0.531,-1.714 1.187,-2.531c3.823,-4.758 4.107,-7.22 1.133,-7.22c-2.69,0 -2.69,-0.82 0.142,-5.743c2.124,-3.774 2.124,-4.102 -0,-4.102c-2.832,0 -2.832,-0.328 0.849,-7.384c2.407,-5.087 2.691,-6.235 0.992,-7.548c-1.7,-1.148 -1.558,-2.133 0.707,-6.563c1.983,-3.938 2.266,-5.415 0.85,-6.4c-1.274,-0.984 -1.133,-2.297 0.85,-5.743c1.84,-3.282 1.982,-4.758 0.708,-5.579c-1.275,-0.984 -1.133,-2.461 0.566,-6.071c1.133,-2.626 2.832,-6.892 3.54,-9.517l1.416,-4.759l0.105,0.235l0.105,-0.235l1.416,4.759c0.708,2.625 2.407,6.891 3.54,9.517c1.699,3.61 1.84,5.087 0.566,6.071c-1.274,0.821 -1.133,2.297 0.708,5.579c1.982,3.446 2.124,4.759 0.849,5.743c-1.416,0.985 -1.132,2.462 0.85,6.4c2.265,4.43 2.407,5.415 0.708,6.563c-1.699,1.313 -1.416,2.461 0.991,7.548c3.682,7.056 3.682,7.384 0.85,7.384c-2.124,0 -2.124,0.328 -0,4.102c2.832,4.923 2.832,5.743 0.141,5.743c-2.973,0 -2.69,2.462 1.133,7.22c0.656,0.817 0.916,1.504 1.187,2.531l-26.089,0Zm49.276,0c0.271,-0.94 0.531,-1.569 1.187,-2.316c3.823,-4.356 4.106,-6.608 1.133,-6.608c-2.69,-0 -2.69,-0.751 0.142,-5.257c2.123,-3.454 2.123,-3.754 -0,-3.754c-2.832,-0 -2.832,-0.301 0.849,-6.759c2.407,-4.655 2.69,-5.707 0.991,-6.908c-1.699,-1.051 -1.557,-1.953 0.708,-6.008c1.983,-3.604 2.266,-4.956 0.85,-5.857c-1.275,-0.901 -1.133,-2.102 0.849,-5.256c1.841,-3.004 1.983,-4.356 0.708,-5.106c-1.274,-0.902 -1.132,-2.253 0.567,-5.557c1.132,-2.403 2.832,-6.308 3.54,-8.711l1.415,-4.355l0.106,0.214l0.105,-0.214l1.415,4.355c0.708,2.403 2.408,6.308 3.54,8.711c1.699,3.304 1.841,4.655 0.567,5.557c-1.275,0.75 -1.133,2.102 0.708,5.106c1.982,3.154 2.124,4.355 0.849,5.256c-1.416,0.901 -1.133,2.253 0.85,5.857c2.265,4.055 2.407,4.957 0.708,6.008c-1.699,1.201 -1.416,2.253 0.991,6.908c3.681,6.458 3.681,6.759 0.849,6.759c-2.123,-0 -2.123,0.3 0,3.754c2.832,4.506 2.832,5.257 0.142,5.257c-2.973,-0 -2.69,2.252 1.133,6.608c0.656,0.747 0.916,1.376 1.187,2.316l-26.089,0Zm31.76,-1.434c0.272,-0.862 0.531,-1.439 1.187,-2.125c3.823,-3.995 4.107,-6.062 1.133,-6.062c-2.69,0 -2.69,-0.689 0.142,-4.822c2.124,-3.168 2.124,-3.444 -0,-3.444c-2.832,0 -2.832,-0.275 0.849,-6.199c2.407,-4.271 2.691,-5.236 0.991,-6.338c-1.699,-0.964 -1.557,-1.791 0.708,-5.51c1.983,-3.307 2.266,-4.547 0.85,-5.373c-1.274,-0.827 -1.133,-1.929 0.849,-4.822c1.841,-2.756 1.983,-3.995 0.708,-4.684c-1.274,-0.827 -1.132,-2.067 0.567,-5.098c1.133,-2.204 2.832,-5.786 3.54,-7.99l1.416,-3.995l0.105,0.197l0.105,-0.197l1.416,3.995c0.708,2.204 2.407,5.786 3.539,7.99c1.7,3.031 1.841,4.271 0.567,5.098c-1.275,0.689 -1.133,1.928 0.708,4.684c1.982,2.893 2.124,3.995 0.849,4.822c-1.416,0.826 -1.132,2.066 0.85,5.373c2.265,3.719 2.407,4.546 0.708,5.51c-1.699,1.102 -1.416,2.067 0.991,6.338c3.681,5.924 3.681,6.199 0.85,6.199c-2.124,0 -2.124,0.276 -0,3.444c2.831,4.133 2.831,4.822 0.141,4.822c-2.973,0 -2.69,2.067 1.133,6.062c0.656,0.686 0.916,1.263 1.187,2.125l-26.089,-0Z" style="fill:#0297ac;fill-rule:nonzero;"/>
    <path d="M0,78.227c0.181,-0.35 0.372,-0.716 0.571,-1.097c2.003,-3.888 3.278,-8.389 2.732,-10.026c-1.275,-3.683 8.379,-22.302 10.929,-21.279c0.91,0.204 3.096,4.501 4.553,9.412c3.097,10.23 6.376,12.481 8.197,5.729c0.911,-2.66 0.547,-4.911 -0.728,-5.32c-1.276,-0.409 -1.093,-2.455 0.728,-6.547c3.279,-6.957 3.461,-9.003 0.911,-7.162c-2.915,2.046 -2.186,-1.227 2.55,-12.276l4.554,-10.231l1.821,6.139c1.093,3.478 3.097,8.593 4.554,11.662c2.003,4.092 2.003,5.729 0.546,6.343c-1.639,0.614 -1.639,2.046 0,5.115c1.275,2.456 1.822,5.729 1.275,7.366c-1.821,5.525 2.368,5.115 7.468,-0.818c3.097,-3.683 7.104,-6.138 9.836,-6.138c3.643,-0 6.376,-2.66 11.658,-11.049c4.007,-6.138 10.2,-14.527 14.207,-18.824l7.104,-7.775l7.468,4.706c4.008,2.66 12.386,8.389 18.579,12.685c19.308,13.709 18.397,13.504 29.144,7.571c20.401,-11.254 20.947,-11.254 26.958,-4.092c3.279,3.887 7.286,6.547 9.836,6.547c4.007,0 9.836,4.297 20.947,15.96c3.461,3.478 5.829,4.501 10.2,3.478c4.736,-0.819 6.922,-0 11.658,5.115c6.193,6.548 8.197,6.548 9.654,0c0.546,-2.864 -0,-4.092 -1.822,-4.092c-2.368,-0 -2.368,-0.819 0.365,-5.32c2.367,-4.092 2.55,-5.729 0.91,-6.957c-1.639,-1.227 -1.457,-3.069 0.729,-7.775c3.279,-7.365 3.643,-9.412 1.093,-7.57c-2.55,1.841 -2.368,1.023 3.825,-14.323c6.193,-15.345 6.193,-15.345 13.115,1.023c2.003,5.116 4.189,9.822 4.553,10.64c0.365,0.614 -0.728,1.637 -2.368,2.046c-2.732,0.614 -2.55,1.228 0.729,6.138c4.189,5.729 4.918,9.821 2.004,9.821c-1.076,0 -0.74,2.578 0.834,5.976l0.152,0.325c1.575,3.398 1.911,5.976 0.835,5.976c-2.55,-0 -2.186,2.66 0.911,7.366c2.732,3.887 2.732,3.887 6.375,-1.023c2.55,-3.274 3.097,-5.525 1.821,-6.343c-1.457,-1.023 -1.275,-3.069 0.183,-6.957c1.457,-3.478 1.639,-6.138 0.546,-6.956c-0.911,-0.819 0.364,-6.139 3.279,-12.481l5.1,-11.049l1.821,5.933c0.911,3.274 3.097,8.594 4.554,11.868c2.186,4.501 2.368,6.342 0.729,7.57c-1.64,1.023 -1.458,2.865 0.91,6.957c2.55,4.296 2.733,5.933 1.093,7.161c-1.821,1.228 -1.457,3.069 1.093,7.98c2.915,5.524 3.097,6.752 0.911,8.184c-2.186,1.637 -1.822,3.069 1.275,9.412c4.736,8.798 4.736,9.207 1.093,9.207c-2.732,0 -2.732,0.409 -0,5.115c3.643,6.139 3.643,7.162 0.182,7.162c-3.825,-0 -3.461,3.069 1.457,9.002c3.461,4.297 0.75,7.557 15.14,8.785c0.913,0.078 2.505,0.147 4.633,0.21c1.449,-2.88 0.829,-4.354 -1.74,-4.354c-3.355,-0 -3.355,-1.023 0.176,-7.162c2.649,-4.705 2.649,-5.115 0,-5.115c-3.531,0 -3.531,-0.409 1.06,-9.207c3.001,-6.343 3.354,-7.775 1.236,-9.412c-2.119,-1.432 -1.942,-2.66 0.883,-8.184c2.471,-4.911 2.824,-6.752 1.059,-7.98c-1.589,-1.228 -1.413,-2.864 1.059,-7.161c2.295,-4.092 2.472,-5.934 0.883,-6.957c-1.589,-1.228 -1.412,-3.069 0.706,-7.57c1.413,-3.274 3.531,-8.594 4.414,-11.868l1.766,-5.933l0.131,0.292l0.131,-0.292l1.765,5.933c0.883,3.274 3.002,8.594 4.414,11.868c2.119,4.501 2.295,6.342 0.706,7.57c-1.589,1.023 -1.412,2.865 0.883,6.957c2.472,4.297 2.649,5.933 1.06,7.161c-1.766,1.228 -1.413,3.069 1.059,7.98c2.825,5.524 3.001,6.752 0.883,8.184c-2.119,1.637 -1.766,3.069 1.236,9.412c4.59,8.798 4.59,9.207 1.059,9.207c-2.648,0 -2.648,0.41 -0,5.115c3.531,6.139 3.531,7.162 0.177,7.162c-2.67,-0 -3.235,1.591 -1.561,4.697c2.135,0.018 4.326,0.034 6.552,0.048c3.807,-0.1 7.861,-0.279 11.924,-0.513c0.228,-1.073 1.093,-2.766 2.61,-5.403c2.648,-4.706 2.648,-5.115 -0,-5.115c-3.531,-0 -3.531,-0.41 1.059,-9.208c3.002,-6.343 3.355,-7.775 1.236,-9.412c-2.119,-1.432 -1.942,-2.66 0.883,-8.184c2.472,-4.911 2.825,-6.752 1.059,-7.98c-1.589,-1.227 -1.412,-2.864 1.06,-7.161c2.295,-4.092 2.471,-5.934 0.882,-6.957c-1.589,-1.227 -1.412,-3.069 0.707,-7.57c1.412,-3.274 3.531,-8.594 4.414,-11.867l1.765,-5.934l0.131,0.293l0.131,-0.293l1.766,5.934c0.882,3.273 3.001,8.593 4.414,11.867c2.118,4.501 2.295,6.343 0.706,7.57c-1.589,1.023 -1.413,2.865 0.883,6.957c2.471,4.297 2.648,5.934 1.059,7.161c-1.766,1.228 -1.412,3.069 1.059,7.98c2.825,5.524 3.002,6.752 0.883,8.184c-2.119,1.637 -1.765,3.069 1.236,9.412c4.591,8.798 4.591,9.208 1.059,9.208c-2.648,-0 -2.648,0.409 0,5.115c0.519,0.902 0.962,1.694 1.329,2.388c1.349,-0.255 2.353,-0.505 2.933,-0.742c3.097,-1.433 5.829,-5.116 7.65,-10.231c0.946,-2.656 1.753,-5.551 2.195,-7.02l0.411,3.032l-0.411,31.01l-401,0.295l0,-34.337c0.401,-1.522 0.408,-2.298 0,-2.581l0,-13.598c2.068,-4.536 1.946,-5.458 0.024,-4.627l-0.024,0.009l0,-6.278Zm144.468,-12.76c5.1,-11.458 9.107,-21.279 8.743,-21.484c-1.093,-1.227 -13.297,10.026 -26.958,24.962c-7.468,8.185 -14.39,14.937 -15.118,14.937c-0.729,-0 -8.744,7.366 -17.851,16.368c-9.107,9.003 -17.304,16.369 -18.397,16.369c-0.911,0 -1.093,0.818 -0.546,2.046c0.546,1.023 4.553,2.046 8.743,2.046c7.468,0 8.561,-0.818 28.233,-23.53c11.111,-12.89 20.4,-23.12 20.4,-22.507c0,0.614 -3.278,8.185 -7.103,16.778c-7.286,16.164 -8.015,19.643 -2.915,14.937c2.368,-2.251 2.368,-1.637 0,6.138c-1.457,4.706 -2.732,9.003 -2.732,9.616c-0,0.41 6.375,0.205 14.208,-0.409c11.293,-1.023 16.757,-2.864 27.868,-9.207c7.65,-4.502 14.39,-7.571 14.754,-6.957c0.547,0.409 5.283,-0.818 10.383,-3.274c12.932,-5.524 14.207,-5.115 6.557,2.251c-5.829,5.934 -8.925,12.072 -4.372,8.798c1.275,-0.818 1.64,0 0.911,2.66c-1.093,3.888 0,4.092 17.486,4.706c33.88,1.228 40.619,1.023 41.53,-1.023c0.364,-1.228 -4.554,-4.297 -10.929,-6.752c-9.289,-3.887 -14.025,-4.706 -22.222,-3.683c-11.293,1.228 -12.75,0 -6.921,-5.933c5.1,-5.32 4.553,-8.389 -2.004,-11.049c-9.107,-3.479 -18.943,-2.66 -33.88,2.864c-7.65,2.865 -14.207,4.706 -14.754,4.297c-0.364,-0.614 0.911,-5.729 3.097,-11.663c6.193,-16.164 4.371,-17.391 -10.929,-7.775c-7.104,4.502 -13.297,7.775 -13.843,7.366c-0.365,-0.614 3.461,-10.435 8.561,-21.893Zm-90.346,19.847c-6.739,1.023 -9.289,0.409 -13.297,-3.069l-5.282,-4.297l-3.461,4.502c-2.003,2.455 -5.282,7.161 -7.104,10.639c-1.821,3.274 -5.828,8.594 -8.56,11.663c-5.647,5.933 -3.461,7.57 4.007,2.864c2.368,-1.432 5.646,-2.25 7.286,-1.841c1.821,0.409 4.736,-1.637 7.286,-5.525c4.735,-7.57 8.925,-7.161 19.854,1.023c6.011,4.706 6.739,4.706 9.836,1.637c1.821,-1.841 6.375,-3.887 10.2,-4.706l6.74,-1.227l-8.379,-4.297c-4.736,-2.251 -8.926,-5.32 -9.654,-6.548c-0.729,-1.227 -4.372,-1.636 -9.472,-0.818Zm347.335,2.783l-0.169,14.793l-0.288,-0.169c-0.538,-0.111 -1.577,0.094 -2.923,0.599c-4.554,1.636 -4.554,1.432 1.275,-10.435c0.597,-1.215 1.674,-3.86 2.105,-4.788Zm-0.709,-9.358l0.421,-0.837l0.411,6.389c-3.459,1.388 -4.292,1.142 -0.832,-5.552Zm-300.907,-51.943c-1.821,-2.455 -4.007,-4.296 -4.918,-4.296c-1.457,-0 -2.003,1.023 -3.825,8.184c-0.364,1.637 1.64,8.389 4.736,14.936c2.915,6.548 4.918,12.481 4.372,12.89c-1.275,1.433 -6.375,2.456 -13.115,2.66c-4.189,0.205 -4.736,0.819 -2.732,2.251c3.643,2.66 2.186,3.683 -8.015,5.524c-10.382,1.842 -12.386,4.911 -5.646,8.389c6.921,3.479 12.75,3.069 21.311,-1.841c5.647,-3.274 7.65,-3.683 8.925,-1.637c1.093,2.046 2.368,1.842 6.011,-1.023c6.193,-4.297 6.193,-11.458 0.182,-23.121c-2.55,-4.706 -4.371,-8.798 -4.007,-8.798c0.547,0 5.465,2.251 11.293,5.115c16.211,8.185 17.486,5.116 2.368,-5.524c-7.468,-5.32 -14.936,-11.458 -16.94,-13.709Z" style="fill:#04adc0;fill-rule:nonzero;"/>
</svg>
