<svg width="100%" height="100%" viewBox="0 0 591 349" version="1.1" xmlns="http://www.w3.org/2000/svg" xml:space="preserve" style="fill-rule:evenodd;clip-rule:evenodd;">
<path d="M265.899,260.912c5.079,-5.913 9.029,-10.285 9.029,-9.987c0,0.335 -1.769,4.472 -3.832,9.167c-3.93,8.831 -4.323,10.732 -1.572,8.16c1.277,-1.229 1.277,-0.894 0,3.354c-0.786,2.571 -1.474,4.919 -1.474,5.254c0,0.224 3.439,0.112 7.664,-0.223c3.331,-0.306 5.722,-0.745 8.185,-1.648l0,13.026c0,0.458 0.062,0.902 0.178,1.324c-6.208,-0.027 -12.316,-0.109 -18.295,-0.245c0.077,-0.348 0.117,-0.709 0.117,-1.079l0,-27.103Zm56,-19.073c1.804,-0.087 2.977,0.613 5.102,2.938c3.341,3.577 4.421,3.577 5.207,0c0.295,-1.566 0,-2.236 -0.982,-2.236c-1.277,0 -1.277,-0.447 0.196,-2.907c1.278,-2.236 1.376,-3.13 0.492,-3.801c-0.885,-0.67 -0.786,-1.677 0.393,-4.248c1.768,-4.024 1.965,-5.142 0.589,-4.136c-1.375,1.006 -1.277,0.559 2.063,-7.825c2.542,-6.38 3.15,-7.905 4.94,-4.329l0,72.697c-5.842,0.321 -11.873,0.588 -18.06,0.799c0.04,-0.253 0.06,-0.512 0.06,-0.776l0,-11.714c12.687,0.4 15.483,0.188 15.91,-0.782c0.196,-0.671 -2.457,-2.348 -5.895,-3.689c-4.22,-1.789 -6.698,-2.388 -10.015,-2.199l0,-27.792Zm-149.964,46.775c-5.82,-0.138 -11.571,-0.304 -17.25,-0.495c3.265,-1.65 1.023,-2.544 -7.771,-1.821c-2.983,0.351 -7.307,0.702 -11.65,1.053c-54.977,-2.501 -101.997,-7.491 -134.294,-14.018c-1.747,-1.382 -1.257,-2.532 2.478,-2.532c17.979,-0.413 42.132,-2.686 46.127,-4.339c1.225,-0.574 19.411,-19.778 19.411,-19.778l9.934,-19.738l13.542,-14.887c0,0 15.902,-11.592 17.587,-13.578c3.087,-3.719 7.082,-6.198 9.806,-6.198c3.632,0 6.357,-2.686 11.623,-11.158c3.995,-6.199 10.17,-14.671 14.165,-19.01l7.083,-7.852l7.445,4.753c3.996,2.686 12.349,8.471 18.524,12.811c1.288,0.926 2.485,1.789 3.602,2.591c-0.884,3.902 -1.722,7.892 -2.508,12.01c-1.129,-0.871 -2.402,-1.814 -3.818,-2.824c-7.446,-5.372 -14.892,-11.571 -16.889,-13.844c-1.816,-2.479 -3.996,-4.339 -4.904,-4.339c-1.452,0 -1.997,1.033 -3.813,8.265c-0.363,1.653 1.634,8.472 4.721,15.084c2.906,6.612 4.904,12.604 4.359,13.018c-1.271,1.446 -6.356,2.479 -13.076,2.686c-4.176,0.206 -4.721,0.826 -2.724,2.273c3.632,2.686 2.18,3.719 -7.99,5.579c-10.351,1.859 -12.349,4.959 -5.63,8.471c6.901,3.513 12.712,3.1 21.248,-1.859c5.629,-3.306 7.627,-3.72 8.898,-1.653c1.09,2.066 2.361,1.859 5.993,-1.034c6.175,-4.339 6.175,-11.571 0.182,-23.348c-2.543,-4.753 -4.359,-8.885 -3.995,-8.885c0.544,0 5.448,2.272 11.259,5.165c1.957,1.001 3.695,1.835 5.213,2.509c-1.715,9.76 -3.153,20.289 -4.265,32.066c-2.314,2.271 -3.89,3.651 -4.217,3.651c-0.726,0 -8.717,7.439 -17.797,16.53c-9.08,9.092 -17.252,16.531 -18.342,16.531c-0.908,0 -1.09,0.826 -0.545,2.066c0.545,1.033 4.54,2.066 8.717,2.066c7.446,0 8.536,-0.826 28.149,-23.762c0.994,-1.168 1.973,-2.315 2.933,-3.433c-0.999,14.724 -1.542,31.347 -1.557,50.604c0,0.204 0.012,0.405 0.036,0.603Zm254.897,-97.856c2.119,2.027 4.499,4.449 7.19,7.31c3.451,3.513 5.812,4.546 10.17,3.513c4.722,-0.827 6.901,0 11.623,5.166c3.507,3.755 5.667,5.378 7.144,4.867l11.292,11.643l9.727,3.93l5.703,9.225l13.37,10.705l13.577,9.264l8.421,6.606c2.951,2.899 6.596,3.656 18.843,4.715c14.856,1.056 39.205,4.963 47.092,7.246c-14.038,2.531 -30.385,4.797 -48.588,6.736c-16.422,0.611 -28.954,1.412 -29.558,1.928c-0.233,0.265 -0.337,0.542 -0.323,0.825c-24.114,1.905 -50.586,3.288 -78.637,4.04c0.014,-0.154 0.021,-0.309 0.021,-0.466c-0.007,-8.277 -0.11,-16.068 -0.306,-23.437l0.793,0.028c33.778,1.24 40.497,1.033 41.405,-1.033c0.363,-1.24 -4.54,-4.339 -10.896,-6.819c-9.262,-3.926 -13.983,-4.752 -22.156,-3.719c-5.159,0.568 -8.259,0.616 -9.544,-0.076l-0.029,-0.688c-0.018,-0.387 -0.035,-0.774 -0.052,-1.16l-0.035,-0.769c0.547,-0.885 1.476,-1.976 2.76,-3.299c5.084,-5.372 4.54,-8.472 -1.998,-11.158c-0.544,-0.21 -1.091,-0.405 -1.641,-0.584c-1.213,-16.989 -3.04,-31.445 -5.368,-44.539Zm-142.933,50.277l0,13.277c-3.506,2.208 -6.436,3.753 -6.711,3.544c-0.197,-0.335 1.866,-5.701 4.618,-11.962c0.754,-1.717 1.464,-3.367 2.093,-4.859Zm-18,-16.862c0.849,0.591 1.679,1.172 2.446,1.711c10.314,7.417 9.932,7.38 15.554,4.229l0,5.66c-2.699,2.291 -7.144,6.734 -11.919,12.022c-2.318,2.573 -4.539,4.887 -6.081,6.388l0,-18.754c8.454,4.277 9.032,2.572 0.972,-3.173c-0.324,-0.234 -0.649,-0.471 -0.972,-0.71l0,-7.373Zm-152.4,4.683c-6.719,1.033 -9.261,0.413 -13.257,-3.1l-5.266,-4.339l-3.451,4.546c-1.997,2.479 -5.266,7.232 -7.082,10.745c-1.816,3.306 -5.811,8.678 -8.535,11.777c-5.63,5.992 -3.451,7.645 3.995,2.893c2.361,-1.446 5.629,-2.273 7.264,-1.86c1.816,0.414 4.722,-1.653 7.264,-5.579c4.722,-7.645 8.899,-7.231 19.795,1.034c5.993,4.752 6.719,4.752 9.806,1.653c1.816,-1.86 6.356,-3.926 10.17,-4.753l6.719,-1.24l-8.353,-4.339c-4.722,-2.273 -8.899,-5.372 -9.625,-6.612c-0.727,-1.24 -4.359,-1.653 -9.444,-0.826Z" fill="#04adbf"/>
<path d="M205.389,258.319l27.51,-12.838l0,42.534l28,0l0,-288c-9.569,0.445 -16.117,3.051 -28,4c-27.947,143.628 -55.889,144.615 -56,284c11.692,0.056 16.872,0.23 28,0c0.009,-10.68 0.176,-20.542 0.49,-29.696Zm179.903,-198.703c23.258,91.39 43.512,109.768 43.607,228.399c-11.691,0.056 -16.872,0.23 -28,0c-0.009,-10.68 -0.176,-20.542 -0.49,-29.696l-27.51,-12.838l0,42.534l-28,0l0,-228.399l40.393,0Zm-96.393,-28c0,0 0.078,-21.571 0,-31.601c28.237,-0.199 56.122,1.655 84.313,3.601c1.96,9.999 3.919,19.301 5.868,28c-21.197,-1.094 -41.766,-4.063 -62.181,-3.601l0,260l-28,0l0,-256.399Zm84,81.681c12.164,38.882 21.808,66.244 25.887,116.265l-25.887,-12.081l0,-104.184Zm-140,0c-12.163,38.88 -21.807,66.243 -25.887,116.265l25.887,-12.081l0,-104.184Z" fill="#025959"/>
<path d="M299.425,333.862l3.674,0l0,15.11l-6.292,0l-0.918,-8.037l-22.457,0l0,-31.963l9.46,0l0,24.707l7.072,0l0,-24.707l9.461,0l0,24.89Zm-72.147,-2.985c-1.01,2.725 -2.174,4.853 -3.49,6.384c-1.317,1.531 -2.901,2.633 -4.754,3.306c-1.852,0.674 -4.186,1.103 -7.003,1.286l-1.194,-6.199c1.959,-0.154 3.49,-0.444 4.592,-0.873c1.103,-0.429 2.021,-1.133 2.756,-2.113l-2.847,0l-9.553,-23.696l9.69,0l5.511,18.507l4.776,-18.507l9.599,0l-8.083,21.905Zm-24.937,-21.905l-0.964,7.072l-7.256,0l0,24.891l-9.461,0l0,-24.891l-7.761,0l0,-7.072l25.442,0Zm128.772,0l-0.965,6.567l-10.562,0l0,5.97l9.276,0l0,6.383l-9.276,0l0,6.43l11.297,0l0,6.613l-20.758,0l0,-31.963l20.988,0Zm-78.806,0c4.378,0 7.784,0.91 10.218,2.732c2.434,1.822 3.651,4.493 3.651,8.014c-0,3.643 -1.156,6.429 -3.468,8.358c-2.311,1.929 -5.426,2.893 -9.345,2.893l-3.123,0l-0,9.966l-9.46,0l-0,-31.963l11.527,0Zm162.617,0c4.378,0 7.784,0.91 10.218,2.732c2.434,1.822 3.651,4.493 3.651,8.014c-0,3.643 -1.155,6.429 -3.467,8.358c-2.311,1.929 -5.427,2.893 -9.345,2.893l-3.123,0l-0,9.966l-9.461,0l-0,-31.963l11.527,0Zm-17.864,0l-0.965,7.072l-7.256,0l-0,24.891l-9.46,0l-0,-24.891l-7.761,0l-0,-7.072l25.442,0Zm-41.699,31.963l-0,-12.905l-7.302,0l-0,12.905l-9.461,0l-0,-31.963l9.461,0l-0,11.802l7.302,0l-0,-11.802l9.46,0l-0,31.963l-9.46,0Zm-102.917,-16.625c2.725,0 4.088,-1.531 4.088,-4.592c-0,-2.786 -1.455,-4.179 -4.363,-4.179l-1.929,0l-0,8.771l2.204,0Zm162.618,0c2.725,0 4.087,-1.531 4.087,-4.592c-0,-2.786 -1.454,-4.179 -4.362,-4.179l-1.929,0l-0,8.771l2.204,0Z" fill="#a0a603"/>
<path d="M530.953,260.481l0.003,0.002l-0.003,-0.002Zm-63.994,-52.867l11.292,11.643l9.727,3.93l5.703,9.225l13.37,10.705l13.577,9.264l8.421,6.606c-0.506,-0.496 -0.991,-1.056 -1.496,-1.691c-4.904,-5.992 -5.267,-9.091 -1.453,-9.091c3.45,0 3.45,-1.034 -0.182,-7.232c-2.724,-4.753 -2.724,-5.166 0,-5.166c3.632,0 3.632,-0.413 -1.089,-9.298c-3.088,-6.406 -3.451,-7.852 -1.272,-9.505c2.18,-1.447 1.998,-2.686 -0.908,-8.265c-2.542,-4.959 -2.905,-6.819 -1.089,-8.059c1.634,-1.239 1.453,-2.892 -1.09,-7.232c-2.361,-4.132 -2.542,-5.992 -0.908,-7.025c1.635,-1.24 1.453,-3.099 -0.726,-7.645c-1.453,-3.306 -3.632,-8.679 -4.54,-11.985l-1.816,-5.992l-5.085,11.158c-2.906,6.406 -4.177,11.778 -3.269,12.604c1.09,0.827 0.908,3.513 -0.545,7.026c-1.453,3.926 -1.634,5.992 -0.181,7.025c1.271,0.827 0.726,3.099 -1.816,6.405c-3.633,4.96 -3.633,4.96 -6.357,1.034c-3.087,-4.753 -3.45,-7.439 -0.908,-7.439c1.056,-0 0.748,-2.521 -0.758,-5.872l-0.299,-0.654c-1.506,-3.351 -1.814,-5.872 -0.759,-5.872c2.906,0 2.18,-4.132 -1.997,-9.918c-3.269,-4.959 -3.451,-5.579 -0.727,-6.199c1.635,-0.413 2.724,-1.446 2.361,-2.066c-0.363,-0.826 -2.542,-5.579 -4.54,-10.744c-6.901,-16.531 -6.901,-16.531 -13.075,-1.034c-6.175,15.498 -6.356,16.324 -3.814,14.464c2.542,-1.859 2.179,0.207 -1.09,7.646c-2.179,4.752 -2.36,6.612 -0.726,7.851c1.634,1.24 1.453,2.893 -0.908,7.026c-2.724,4.546 -2.724,5.372 -0.363,5.372c1.816,0 2.361,1.24 1.816,4.133c-0.628,2.856 -1.357,4.478 -2.481,4.867Zm-417.915,51.105l15.942,-17.035l9.934,-19.738l13.542,-14.887l13.015,-9.473l0.001,-0.001c-2.624,1.504 -4.089,0.453 -2.875,-3.277c0.545,-1.653 0,-4.959 -1.271,-7.439c-1.635,-3.099 -1.635,-4.545 0,-5.165c1.453,-0.62 1.453,-2.273 -0.545,-6.406c-1.453,-3.099 -3.45,-8.265 -4.54,-11.777l-1.816,-6.199l-4.54,10.331c-4.722,11.158 -5.448,14.464 -2.543,12.398c2.543,-1.86 2.361,0.206 -0.908,7.232c-1.816,4.132 -1.997,6.198 -0.726,6.612c1.271,0.413 1.634,2.686 0.726,5.372c-1.816,6.819 -5.084,4.546 -8.172,-5.786c-1.452,-4.959 -3.632,-9.298 -4.54,-9.504c-2.542,-1.033 -12.167,17.77 -10.896,21.489c0.545,1.653 -0.726,6.199 -2.724,10.125c-4.358,8.471 -4.54,9.091 -0.545,7.438c2.361,-1.033 1.998,0.62 -1.816,8.472c-5.811,11.984 -5.811,12.191 -1.271,10.538c4.358,-1.653 4.358,-1.24 0.726,9.091c-1.095,3.117 -2.521,5.707 -4.158,7.589Z" fill="#a0a602"/>
</svg>
